<svg width="128" height="128" viewBox="0 0 128 128" fill="none" xmlns="http://www.w3.org/2000/svg">
<path d="M66.6316 44.1381L55.265 44.1489C54.3959 44.031 51.7951 39.4606 51.3174 38.5697C49.0673 34.3749 46.8741 28.6383 46.7215 23.7814L46.7021 20.4747C46.6992 18.3784 46.6754 17.8235 49.1394 17.8876L60.2849 17.8781C60.3353 17.2445 60.3 16.5869 60.2992 15.9508L60.2953 12.5039C60.2945 11.2883 59.9935 10.418 61.3139 9.89902L64.7034 9.87502C67.7861 9.87151 67.3974 10.4508 67.3849 12.9513L67.3667 17.8834L78.9201 17.9018C81.0487 17.9034 81.2115 18.191 81.2213 20.3929C81.2556 28.0339 79.511 34.2086 75.3108 40.7723L73.9252 42.8285C72.9331 44.2326 73.1347 44.1298 71.4422 44.1333L66.6316 44.1381Z" fill="#0D0D0D"/>
<path fill-rule="evenodd" clip-rule="evenodd" d="M65.9978 9.93083C64.9733 10.3658 65.0022 11.0345 65.041 11.9337C65.0488 12.1145 65.057 12.3046 65.0571 12.5039L65.061 15.9508C65.0613 16.1325 65.0643 16.3158 65.0674 16.4999C65.075 16.9605 65.0827 17.4254 65.0467 17.8781L53.9013 17.8876C53.8327 17.8858 53.766 17.8845 53.7012 17.8837L60.2849 17.8781C60.3209 17.4254 60.3132 16.9605 60.3056 16.4999C60.3025 16.3158 60.2995 16.1325 60.2992 15.9508L60.2953 12.5039C60.2952 12.3046 60.287 12.1145 60.2792 11.9337C60.2394 11.0123 60.21 10.3329 61.3139 9.89903L64.7034 9.87502C65.2297 9.87442 65.6547 9.8908 65.9978 9.93083ZM60.0017 44.1444C59.1088 43.945 56.5524 39.4522 56.0792 38.5697C53.8291 34.3749 51.6359 28.6383 51.4834 23.7814L51.4639 20.4747L51.4638 20.4171C51.461 18.5224 51.4601 17.9146 53.3903 17.884L49.1395 17.8876C46.6982 17.8241 46.699 18.3682 46.702 20.4171L46.7021 20.4747L46.7216 23.7814C46.8741 28.6383 49.0673 34.3749 51.3174 38.5697C51.7952 39.4606 54.3959 44.031 55.265 44.1489L60.0017 44.1444Z" fill="#080808"/>
<path d="M78.5568 52.5386L51.8541 52.5755C50.7968 52.5761 49.6015 52.6852 48.5579 52.5513C44.8211 52.0717 44.8843 46.2084 48.913 45.8592C49.2997 45.7967 49.7491 45.8383 50.1438 45.8371L72.7295 45.8307C74.7763 45.8311 76.9245 45.703 78.9615 45.89C82.4756 46.2127 82.6718 52.0326 78.5568 52.5386Z" fill="#0D0D0D"/>
<path d="M78.5568 52.5386L51.8541 52.5755C50.7968 52.5761 49.6015 52.6852 48.5579 52.5513C44.8211 52.0717 44.8843 46.2084 48.913 45.8592C49.2997 45.7967 49.7491 45.8383 50.1438 45.8371L72.7295 45.8307C74.7763 45.8311 76.9245 45.703 78.9615 45.89C82.4756 46.2127 82.6718 52.0326 78.5568 52.5386Z" fill="#080808"/>
<path d="M83.3185 52.5386L56.6159 52.5755C55.5586 52.5761 54.3633 52.6852 53.3197 52.5513C49.5829 52.0717 49.6461 46.2084 53.6748 45.8592C54.0615 45.7967 54.5109 45.8383 54.9056 45.8371L77.4913 45.8307C79.5381 45.8311 81.6863 45.703 83.7233 45.89C87.2374 46.2127 87.4336 52.0326 83.3185 52.5386Z" fill="#0D0D0D"/>
<path d="M60.049 83.5699L46.9581 83.6044C47.0809 83.4551 47.2115 83.3104 47.2916 83.133C50.3949 76.2675 52.4491 69.1886 53.4781 61.7234L53.816 58.7523C53.8672 57.9907 53.8476 57.2321 53.9365 56.4722L68.1693 56.4507L73.8296 56.4374C74.0105 64.1211 76.6401 73.6299 79.7129 80.5038L80.7679 82.6424C80.8959 82.9065 80.9686 83.2798 81.1858 83.4803L60.049 83.5699Z" fill="#0D0D0D"/>
<path d="M60.049 83.5699L46.9581 83.6044C47.0809 83.4551 47.2115 83.3104 47.2916 83.133C50.3949 76.2675 52.4491 69.1886 53.4781 61.7234L53.816 58.7523C53.8672 57.9907 53.8476 57.2321 53.9365 56.4722L68.1693 56.4507L73.8296 56.4374C74.0105 64.1211 76.6401 73.6299 79.7129 80.5038L80.7679 82.6424C80.8959 82.9065 80.9686 83.2798 81.1858 83.4803L60.049 83.5699Z" fill="#080808"/>
<path d="M64.8108 83.5699L51.7198 83.6044C51.8427 83.4551 51.9733 83.3104 52.0534 83.133C55.1567 76.2675 57.2109 69.1886 58.2399 61.7234L58.5778 58.7523C58.629 57.9907 58.6093 57.2321 58.6983 56.4722L72.931 56.4507L78.5914 56.4374C78.7722 64.1211 81.4019 73.6299 84.4746 80.5038L85.5297 82.6424C85.6576 82.9065 85.7304 83.2798 85.9475 83.4803L64.8108 83.5699Z" fill="#0D0D0D"/>
<path d="M82.0542 106.753L39.3991 106.72C37.994 106.58 38.0332 105.326 38.0314 104.346L38.0283 101.915C38.0268 100 37.9278 98.0235 38.0463 96.1169C38.1324 94.7305 39.6142 93.5178 40.4945 92.564L45.4207 87.2159C45.5197 87.1142 45.6364 87.0457 45.7664 86.9916L77.9701 86.9717C79.3917 86.9717 80.8964 86.8758 82.3107 86.9842C82.8843 87.0283 83.9513 88.5918 84.3743 89.0351L87.3951 92.1689C88.5381 93.3673 89.8167 94.4773 89.8813 96.2414L89.8852 102C89.879 105.702 90.7122 106.748 86.1807 106.754L82.0542 106.753Z" fill="#0D0D0D"/>
<path d="M82.0542 106.753L39.3991 106.72C37.994 106.58 38.0332 105.326 38.0314 104.346L38.0283 101.915C38.0268 100 37.9278 98.0235 38.0463 96.1169C38.1324 94.7305 39.6142 93.5178 40.4945 92.564L45.4207 87.2159C45.5197 87.1142 45.6364 87.0457 45.7664 86.9916L77.9701 86.9717C79.3917 86.9717 80.8964 86.8758 82.3107 86.9842C82.8843 87.0283 83.9513 88.5918 84.3743 89.0351L87.3951 92.1689C88.5381 93.3673 89.8167 94.4773 89.8813 96.2414L89.8852 102C89.879 105.702 90.7122 106.748 86.1807 106.754L82.0542 106.753Z" fill="#080808"/>
<path d="M86.816 106.753L44.1609 106.72C42.7559 106.58 42.795 105.326 42.7932 104.346L42.7901 101.915C42.7887 100 42.6897 98.0235 42.8082 96.1169C42.8943 94.7305 44.376 93.5178 45.2564 92.564L50.1825 87.2159C50.2816 87.1142 50.3982 87.0457 50.5282 86.9916L82.7319 86.9717C84.1535 86.9717 85.6582 86.8758 87.0725 86.9842C87.6462 87.0283 88.7131 88.5918 89.1361 89.0351L92.157 92.1689C93.3 93.3673 94.5785 94.4773 94.6431 96.2414L94.647 102C94.6409 105.702 95.4741 106.748 90.9426 106.754L86.816 106.753Z" fill="#0D0D0D"/>
</svg>
