<svg width="128" height="128" viewBox="0 0 128 128" fill="none" xmlns="http://www.w3.org/2000/svg">
<path d="M64.6674 45.9462L55.0018 45.9644C54.0982 43.6208 53.4868 42.8432 52.0734 40.725L49.2932 36.3906C48.0104 34.3412 45.9088 31.6936 46.7492 29.1562C48.1364 24.9684 55.8742 24.2986 59.5802 24.0726L61.2732 24.0346C61.4774 24.0328 61.7662 24.0724 61.9488 23.9814L61.949 18.7506C60.714 18.7543 58.81 19.033 57.8338 18.1671C56.9006 17.3394 56.904 16.052 57.8066 15.1961C58.7644 14.2881 60.5972 14.5543 61.8278 14.5561C61.596 12.6779 61.773 10.6071 63.9892 10.2056L64.0764 10.2062C66.592 10.2431 66.502 12.7003 66.4436 14.5651L68.1634 14.5558C69.063 14.5529 69.8172 14.4797 70.5112 15.1652C71.405 16.0479 71.3472 17.3777 70.4178 18.2017C69.4586 19.0519 67.4786 18.8122 66.2634 18.7125L66.2748 24.0196L69.125 24.0562C72.6606 24.2308 79.1314 25.0024 81.1566 28.2184C82.5858 30.4882 81.4324 32.5538 80.2172 34.6022L75.7558 41.508C74.8432 42.9032 73.8666 44.2136 73.4954 45.8698C73.2236 45.9652 72.8172 45.9398 72.527 45.941L64.6674 45.9462Z" fill="#0D0D0D"/>
<path fill-rule="evenodd" clip-rule="evenodd" d="M66.0515 11.2891C65.4954 12.1577 65.4823 13.3938 65.6257 14.5561C65.4102 14.5558 65.1762 14.5474 64.9316 14.5385C63.78 14.4971 62.3946 14.4472 61.6045 15.1961C60.7019 16.052 60.6985 17.3394 61.6317 18.1671C62.4292 18.8744 63.8457 18.818 65.0109 18.7716C65.2722 18.7612 65.5208 18.7513 65.7469 18.7506L65.7467 23.9814C65.6066 24.0512 65.4039 24.0441 65.2249 24.0379C65.1707 24.036 65.1186 24.0342 65.0711 24.0346L63.3781 24.0726C59.6721 24.2986 51.9343 24.9684 50.5471 29.1562C49.8158 31.3642 51.3123 33.6556 52.5583 35.5637C52.7443 35.8484 52.9246 36.1245 53.0911 36.3906L55.8713 40.725C56.0353 40.9707 56.1884 41.1983 56.3325 41.4125C57.4293 43.0428 57.9996 43.8907 58.797 45.9572L55.0018 45.9644C54.203 43.8926 53.6326 43.0446 52.5346 41.4125C52.3905 41.1983 52.2373 40.9707 52.0734 40.725L49.2932 36.3906C49.1266 36.1245 48.9463 35.8484 48.7604 35.5637C47.5143 33.6556 46.0179 31.3642 46.7492 29.1562C48.1364 24.9684 55.8742 24.2986 59.5802 24.0726L61.2732 24.0346C61.3207 24.0342 61.3727 24.036 61.4269 24.0379C61.6059 24.0441 61.8086 24.0512 61.9488 23.9814L61.949 18.7506C61.7228 18.7513 61.4742 18.7612 61.213 18.7716C60.0477 18.818 58.6312 18.8744 57.8338 18.1671C56.9006 17.3394 56.904 16.052 57.8066 15.1961C58.5966 14.4472 59.982 14.4971 61.1337 14.5385C61.3782 14.5474 61.6122 14.5558 61.8278 14.5561C61.596 12.6779 61.773 10.6071 63.9892 10.2056L64.0764 10.2062C65.1213 10.2216 65.7167 10.6545 66.0515 11.2891Z" fill="#080808"/>
<path d="M73.9062 53.9994L52.2672 54.002C51.5486 54.0016 50.7038 54.086 50.0022 53.9686C46.6802 53.413 46.2256 48.6768 49.607 47.8702C50.1752 47.7346 50.8062 47.7878 51.3876 47.7864L54.3964 47.7838L76.3626 47.7758C77.0638 47.7752 77.9962 47.6666 78.6688 47.8478L78.75 47.8714C81.8988 48.749 81.8206 53.3816 78.435 53.97C77.955 54.0534 77.3958 54.0026 76.9044 54.0034L73.9062 53.9994Z" fill="#0D0D0D"/>
<path fill-rule="evenodd" clip-rule="evenodd" d="M74.2195 53.9998L76.9044 54.0034C77.039 54.0032 77.1787 54.0068 77.3205 54.0105C77.615 54.0182 77.9183 54.0261 78.2035 54.0001L77.7042 53.9994L74.2195 53.9998ZM78.2889 47.7765L58.1943 47.7838L55.1855 47.7864C55.0876 47.7866 54.9882 47.7853 54.888 47.7836L76.3626 47.7758C76.5461 47.7757 76.7455 47.7681 76.9518 47.7603C77.3941 47.7435 77.8687 47.7255 78.2889 47.7765ZM54.0728 47.7841L51.3876 47.7864C51.2582 47.7867 51.1264 47.7843 50.9933 47.7819C50.5285 47.7735 50.0488 47.7648 49.607 47.8702C46.2256 48.6768 46.6802 53.413 50.0022 53.9686C50.5 54.0519 51.0699 54.0336 51.6157 54.0161C51.8391 54.0089 52.0585 54.0019 52.2672 54.002L54.0501 54.0018C53.9651 53.9932 53.8817 53.9822 53.8001 53.9686C50.4781 53.413 50.0236 48.6768 53.4049 47.8702C53.6205 47.8187 53.8452 47.7945 54.0728 47.7841Z" fill="#080808"/>
<path d="M73.9062 86.9282L45.0696 86.918C44.571 86.9144 43.9394 86.9648 43.4706 86.779L43.4062 86.7528C40.8098 85.801 43.0244 82.7512 43.9416 81.445L46.8182 77.356C50.432 71.823 54.5364 62.5966 54.4936 55.856L73.8172 55.9366C73.9084 56.1078 73.8978 56.3226 73.912 56.5152C74.4176 63.3848 77.1224 70.3336 80.743 76.1214L84.7818 81.9896C85.6182 83.1704 87.001 85.5118 85.3642 86.6404L85.2812 86.696C84.5614 87.189 81.9876 86.9266 81.0594 86.9272L73.9062 86.9282Z" fill="#0D0D0D"/>
<path d="M69.7188 106.802L31.1208 106.726C31.0318 106.439 31.1066 105.853 31.104 105.539C31.076 102.239 31.6924 98.9644 35.4812 98.1118L36.2314 97.9106L36.187 94.96C36.183 91.024 38.0982 89.7924 41.9868 89.7892L58.6568 89.7842L85.5692 89.7816C86.5132 89.782 87.5688 89.6898 88.4982 89.82C91.594 90.2544 92.2508 92.8486 92.251 95.4252L92.2448 97.8846C92.4246 98.043 93.0546 98.097 93.3124 98.191C96.23 99.254 97.2386 101.551 97.2436 104.408L97.2404 106.804L69.7188 106.802Z" fill="#0D0D0D"/>
<path fill-rule="evenodd" clip-rule="evenodd" d="M31.1208 106.726L69.7188 106.802H73.5167L34.9187 106.726C34.8563 106.525 34.8744 106.177 34.8899 105.878C34.8965 105.751 34.9027 105.633 34.9019 105.539C34.8739 102.239 35.4903 98.9644 39.2791 98.1118L40.0293 97.9106L39.9849 94.96C39.9809 91.024 41.8961 89.7924 45.7847 89.7892L62.4547 89.7842H58.6568L41.9868 89.7892C38.0982 89.7924 36.183 91.024 36.187 94.96L36.2314 97.9106L35.4812 98.1118C31.6924 98.9644 31.076 102.239 31.104 105.539C31.1048 105.633 31.0986 105.751 31.092 105.878C31.0765 106.177 31.0584 106.525 31.1208 106.726ZM85.5692 89.7816L88.153 89.7817C87.5906 89.7343 86.9946 89.7505 86.4134 89.7663C86.1264 89.774 85.8431 89.7817 85.5692 89.7816Z" fill="#080808"/>
<path fill-rule="evenodd" clip-rule="evenodd" d="M48.6179 86.9193L73.9062 86.9282L76.6223 86.9278L48.8676 86.918C48.7874 86.9174 48.7037 86.9183 48.6179 86.9193ZM48.1246 86.9191C47.8228 86.9109 47.5219 86.8794 47.2686 86.779L47.2041 86.7528C44.6619 85.8209 46.732 82.8776 47.6805 81.529L47.7395 81.445L50.6162 77.356C54.2271 71.8274 58.3279 62.6111 58.2916 55.8719L54.4936 55.856C54.5364 62.5966 50.432 71.823 46.8182 77.356L43.9416 81.445L43.8826 81.529C42.9341 82.8776 40.864 85.8209 43.4062 86.7528L43.4706 86.779C43.8537 86.9308 44.3455 86.925 44.7847 86.9197C44.8829 86.9185 44.9785 86.9174 45.0696 86.918L48.1246 86.9191ZM81.1392 86.9277C81.335 86.9302 81.5883 86.9415 81.8742 86.9542C82.6933 86.9905 83.7793 87.0387 84.5428 86.9272L81.1392 86.9277Z" fill="#080808"/>
</svg>
