<svg width="128" height="128" viewBox="0 0 128 128" fill="none" xmlns="http://www.w3.org/2000/svg">
<path d="M67.9844 39.7402L54.7604 39.7388C54.1632 39.7382 53.5298 39.778 52.9376 39.704C50.7458 39.4298 49.9022 36.9126 51.7588 35.6324L51.833 35.5826C51.5342 34.5858 50.8546 33.5638 50.3824 32.6254L46.2224 24.3568C45.8528 23.5856 45.8108 23.1828 45.808 22.3378L45.7952 14.225L52.947 14.2207L52.9404 22.5576L60.279 22.5618L60.2992 14.0345L67.8374 14.0676L67.8868 22.5564L75.2078 22.5506L75.2378 14.1872L82.4548 14.1952C82.5382 14.5117 82.484 14.9453 82.4844 15.2737L82.4932 21.8764C82.4944 23.0802 82.592 23.6178 82.0454 24.7004L77.282 34.3884C77.1028 34.7382 76.6606 35.4936 76.6682 35.5154C76.8698 36.0942 79.255 36.7458 77.0354 38.9688C76.003 40.0026 74.579 39.739 73.2556 39.7406L67.9844 39.7402Z" fill="#0D0D0D"/>
<path fill-rule="evenodd" clip-rule="evenodd" d="M73.2556 39.7406C73.4797 39.7403 73.7067 39.7477 73.9342 39.755C74.383 39.7695 74.8336 39.7841 75.2679 39.7404L73.2556 39.7406ZM79.1468 14.1915L75.2378 14.1872L75.2078 22.5506L71.7958 22.5533L71.7959 22.5564L79.1169 22.5506L79.1468 14.1915ZM64.2082 14.0517L64.188 22.5618L60.279 22.5595L60.2992 14.0345L64.2082 14.0517ZM52.947 14.2231V14.2207L45.7952 14.225L45.808 22.3378C45.8108 23.1828 45.8528 23.5856 46.2224 24.3568L50.3824 32.6254C50.5264 32.9116 50.6897 33.2056 50.8556 33.5043C51.2337 34.1849 51.6253 34.8898 51.833 35.5826L51.7588 35.6324C49.9022 36.9126 50.7458 39.4298 52.9376 39.704C53.3756 39.7587 53.8363 39.7512 54.2881 39.7438C54.4471 39.7412 54.6049 39.7386 54.7604 39.7388L57.2647 39.7391C57.1238 39.7322 56.9841 39.7212 56.8466 39.704C54.6548 39.4298 53.8112 36.9126 55.6678 35.6324L55.7421 35.5826C55.5344 34.8898 55.1428 34.1849 54.7647 33.5043C54.5988 33.2056 54.4355 32.9116 54.2914 32.6254L50.1315 24.3568C49.7618 23.5856 49.7198 23.1828 49.717 22.3378L49.7043 14.225L52.947 14.2231Z" fill="#080808"/>
<path d="M71.6562 86.6604L49.0642 86.6712C48.3106 86.672 47.0418 86.8878 46.3534 86.5366L46.2812 86.4976C44.7614 85.6954 45.7028 84.4644 46.4062 83.3776L47.0674 82.288C51.205 75.0308 54.004 66.8882 55.6072 58.704L56.6434 51.9658C56.9076 50.5132 56.836 48.9058 56.8764 47.4308L53.0244 47.4288C52.4218 47.4296 51.6978 47.5048 51.1078 47.3988C49.4548 47.1022 48.951 45.5062 50.113 44.3562C51.2152 43.2654 52.9752 43.419 54.4022 43.4146L57.0864 43.4096L75.7322 43.4152C76.2454 43.4188 76.7404 43.3992 77.2298 43.5808C79.5824 44.4534 79.6298 46.835 77.8018 47.3092C77.0212 47.5118 76.0774 47.4256 75.2694 47.4248L71.4628 47.4096C71.5084 53.0216 72.501 58.727 74.027 64.1264L75.5938 68.9208C77.0586 73.19 78.784 77.3812 80.9964 81.3228L81.9222 82.8094C82.3354 83.411 83.0106 84.1724 83.0604 84.92C83.1686 86.5484 81.7582 86.653 80.6326 86.655L71.6562 86.6604Z" fill="#0D0D0D"/>
<path fill-rule="evenodd" clip-rule="evenodd" d="M50.6588 86.6705C50.5135 86.6397 50.3796 86.5964 50.2625 86.5366L50.1903 86.4976C48.7644 85.745 49.5051 84.6148 50.1829 83.5805C50.2276 83.5124 50.2719 83.4447 50.3153 83.3776L50.9765 82.288C55.1141 75.0308 57.9131 66.8882 59.5163 58.704L60.5525 51.9658C60.7503 50.8781 60.7599 49.7037 60.7692 48.5629C60.7723 48.1803 60.7753 47.8014 60.7855 47.4308L56.9335 47.4288C56.8777 47.4289 56.8209 47.4296 56.7632 47.4307L56.8764 47.4308C56.8663 47.8014 56.8632 48.1803 56.8601 48.5629C56.8508 49.7037 56.8412 50.8781 56.6434 51.9658L55.6072 58.704C54.004 66.8882 51.205 75.0308 47.0674 82.288L46.4062 83.3776C46.3628 83.4447 46.3185 83.5124 46.2739 83.5805C45.596 84.6148 44.8553 85.745 46.2812 86.4976L46.3534 86.5366C46.8656 86.7979 47.699 86.7454 48.4025 86.701C48.6446 86.6857 48.8713 86.6714 49.0642 86.6712L50.6588 86.6705ZM55.2381 47.43C55.1627 47.422 55.0888 47.4117 55.0169 47.3988C53.3639 47.1022 52.8601 45.5062 54.0221 44.3562C54.8689 43.5182 56.1041 43.4147 57.2781 43.4097L57.0864 43.4096L54.4022 43.4146C54.2435 43.4151 54.0806 43.4137 53.9151 43.4122C52.5918 43.4003 51.0926 43.3868 50.113 44.3562C48.951 45.5062 49.4548 47.1022 51.1078 47.3988C51.53 47.4747 52.0207 47.4578 52.4865 47.4417C52.6717 47.4353 52.853 47.429 53.0244 47.4288L55.2381 47.43ZM57.4972 43.4097C57.6071 43.4102 57.7162 43.4112 57.8241 43.4122C57.9897 43.4137 58.1526 43.4151 58.3113 43.4146L60.4545 43.4106L57.4972 43.4097ZM75.372 47.4253C75.372 47.4201 75.3719 47.4149 75.3719 47.4096L77.149 47.4167C76.7175 47.4551 76.2644 47.4443 75.8292 47.434C75.6739 47.4303 75.5209 47.4267 75.372 47.4253Z" fill="#080808"/>
<path d="M46.2188 107.547L37.25 107.546C35.4134 107.537 35.0408 106.952 35.1604 105.062C35.3538 102.01 36.0966 97.921 39.7812 97.2848C40.8112 97.107 42.953 97.4412 43.7188 97.1308L43.7314 97.0162C43.456 96.756 43.0702 96.6368 42.727 96.4842C39.3146 94.9674 40.8246 90.7152 44.0116 90.329C44.4302 90.2782 44.887 90.3136 45.311 90.3148L82.4184 90.3172C84.3104 90.282 87.267 90.3242 87.6842 92.8502L87.6972 92.9376C88.267 96.5942 82.463 97.1818 86.0724 97.186C90.4222 97.1908 92.1112 97.8038 93.3576 102.406C93.637 103.439 93.6372 104.802 93.6594 105.875C93.6974 107.703 92.2842 107.55 90.8882 107.552L46.2188 107.547Z" fill="#0D0D0D"/>
<path fill-rule="evenodd" clip-rule="evenodd" d="M90.8882 107.552C90.9894 107.552 91.0907 107.552 91.1916 107.553C91.3855 107.554 91.5776 107.556 91.764 107.551L90.8882 107.552ZM48.0626 90.315L45.311 90.3148C45.1917 90.3145 45.0698 90.3114 44.9469 90.3084C44.633 90.3005 44.3124 90.2925 44.0116 90.329C40.8246 90.7152 39.3146 94.9674 42.727 96.4842C42.8006 96.5169 42.8762 96.5481 42.9523 96.5795C43.2307 96.6944 43.5151 96.8118 43.7314 97.0162L43.7188 97.1308C43.2917 97.3039 42.4368 97.2766 41.5854 97.2493C40.91 97.2277 40.2368 97.2061 39.7812 97.2848C36.0966 97.921 35.3538 102.01 35.1604 105.062C35.0408 106.952 35.4134 107.537 37.25 107.546H41.1591C39.3225 107.537 38.9499 106.952 39.0695 105.062C39.2629 102.01 40.0057 97.921 43.6903 97.2848C44.1459 97.2061 44.8191 97.2277 45.4945 97.2493C46.3459 97.2766 47.2008 97.3039 47.6279 97.1308L47.6405 97.0162C47.4242 96.8118 47.1398 96.6944 46.8614 96.5795C46.7853 96.5481 46.7097 96.5169 46.6361 96.4842C43.2237 94.9674 44.7337 90.7152 47.9207 90.329C47.9676 90.3233 48.0149 90.3187 48.0626 90.315Z" fill="#080808"/>
</svg>
