<svg width="128" height="128" viewBox="0 0 128 128" fill="none" xmlns="http://www.w3.org/2000/svg">
<path d="M46.8122 73.1242C46.7846 68.9562 47.556 66.7874 50.0938 63.6014L59.9662 51.3978C59.2446 50.4188 58.5792 49.2974 57.7498 48.4116C54.4754 50.7074 53.2068 51.0374 49.2018 51.0414L44.9476 51.0444C41.7806 51.0466 42.786 50.9614 40.1382 52.6966L34.8108 56.2278C29.837 59.5588 29.038 56.5086 26.3024 52.5836L24.643 50.1568C22.5438 47.0094 22.97 46.2682 25.6848 43.806L51.2048 21.096L44.7338 14.05C46.1744 14.0447 47.6578 13.9837 49.0926 14.0908L53.3214 14.6071C55.0532 14.7987 56.285 14.692 57.628 16.0091L59.9462 18.4374C60.5436 19.074 60.4898 19.1408 61.3646 19.1976L63.3062 19.3346C64.6868 19.4999 66.0786 19.699 67.4376 19.9978C80.1528 22.794 90.8328 34.2254 89.9258 47.676L89.697 52.0294C89.674 52.4614 89.5894 52.8836 89.5624 53.3124L88.814 65.9062L88.0522 78.1236C88.0058 78.7728 88.0094 79.4612 87.868 80.0968L48.219 80.0934C47.5814 78.3104 46.9088 74.9256 46.8122 73.1242Z" fill="#0D0D0D"/>
<path fill-rule="evenodd" clip-rule="evenodd" d="M50.0938 63.6014C47.556 66.7874 46.7846 68.9562 46.8122 73.1242C46.9088 74.9256 47.5814 78.3104 48.219 80.0934L87.868 80.0968C87.868 80.0967 87.868 80.0965 87.8681 80.0964L53.219 80.0934C52.5814 78.3104 51.9088 74.9256 51.8122 73.1242C51.7846 68.9562 52.556 66.7874 55.0938 63.6014L64.9662 51.3978C64.7346 51.0836 64.5088 50.7547 64.2815 50.4237C63.8006 49.7233 63.313 49.0131 62.7498 48.4116C61.3464 49.3956 60.3115 50.0184 59.2716 50.4093C59.2749 50.4141 59.2782 50.4189 59.2815 50.4237C59.5088 50.7547 59.7346 51.0836 59.9662 51.3978L50.0938 63.6014ZM34.1606 56.6413C33.5581 56.0248 33.0024 55.1666 32.3652 54.1825C32.0382 53.6775 31.6897 53.1393 31.3024 52.5836L29.643 50.1568C27.5438 47.0094 27.97 46.2682 30.6848 43.806L56.2048 21.096L49.8569 14.1841L49.0926 14.0908C48.013 14.0102 46.9058 14.0248 45.8101 14.0392C45.4496 14.0439 45.0904 14.0487 44.7338 14.05L51.2048 21.096L25.6848 43.806C22.97 46.2682 22.5438 47.0094 24.643 50.1568L26.3024 52.5836C26.6897 53.1393 27.0382 53.6775 27.3652 54.1825C29.2434 57.083 30.4132 58.8895 34.1606 56.6413Z" fill="#080808"/>
<path d="M88.2622 92.9616L41.6446 92.9678L41.606 92.7666C41.4976 91.7 41.4806 89.0322 41.5836 87.9852C41.8866 84.9072 44.5012 82.5406 47.5262 82.2748L86.3774 82.247C87.2576 82.2478 88.3912 82.148 89.2204 82.4268C91.527 83.2024 93.4454 84.811 93.9998 87.2706C94.2332 88.3064 94.1622 91.8312 94.0448 92.9702L88.2622 92.9616Z" fill="#0D0D0D"/>
<path d="M88.2622 92.9616L41.6446 92.9678L41.606 92.7666C41.4976 91.7 41.4806 89.0322 41.5836 87.9852C41.8866 84.9072 44.5012 82.5406 47.5262 82.2748L86.3774 82.247C87.2576 82.2478 88.3912 82.148 89.2204 82.4268C91.527 83.2024 93.4454 84.811 93.9998 87.2706C94.2332 88.3064 94.1622 91.8312 94.0448 92.9702L88.2622 92.9616Z" fill="#080808"/>
<path d="M93.2622 92.9616L46.6446 92.9678L46.606 92.7666C46.4976 91.7 46.4806 89.0322 46.5836 87.9852C46.8866 84.9072 49.5012 82.5406 52.5262 82.2748L91.3774 82.247C92.2576 82.2478 93.3912 82.148 94.2204 82.4268C96.527 83.2024 98.4454 84.811 98.9998 87.2706C99.2332 88.3064 99.1622 91.8312 99.0448 92.9702L93.2622 92.9616Z" fill="#0D0D0D"/>
<path d="M94.2188 108.787L35.44 108.785L35.4236 104.469C35.4192 103.372 35.3424 102.196 35.472 101.11C35.8366 98.0486 38.2396 95.4416 41.3244 95.022L93.5308 95.0002C96.8514 95.0708 99.534 97.689 100.054 100.899C100.258 102.156 100.189 103.518 100.19 104.789L100.176 108.78L94.2188 108.787Z" fill="#0D0D0D"/>
<path d="M94.2188 108.787L35.44 108.785L35.4236 104.469C35.4192 103.372 35.3424 102.196 35.472 101.11C35.8366 98.0486 38.2396 95.4416 41.3244 95.022L93.5308 95.0002C96.8514 95.0708 99.534 97.689 100.054 100.899C100.258 102.156 100.189 103.518 100.19 104.789L100.176 108.78L94.2188 108.787Z" fill="#080808"/>
<path d="M99.2188 108.787L40.44 108.785L40.4236 104.469C40.4192 103.372 40.3424 102.196 40.472 101.11C40.8366 98.0486 43.2396 95.4416 46.3244 95.022L98.5308 95.0002C101.851 95.0708 104.534 97.689 105.054 100.899C105.258 102.156 105.189 103.518 105.19 104.789L105.176 108.78L99.2188 108.787Z" fill="#0D0D0D"/>
</svg>
