<svg width="128" height="128" viewBox="0 0 128 128" fill="none" xmlns="http://www.w3.org/2000/svg">
<path d="M65.1718 89.0642L44.071 89.0652C43.388 89.0646 42.593 89.145 41.927 89.038C39.647 88.6722 39.1884 85.5564 40.1506 83.8438C40.5584 83.1178 41.1566 82.4832 41.6838 81.8412L43.1448 79.9412C47.7708 73.7232 50.786 66.1834 51.886 58.5252L52.606 52.23C50.773 52.1584 48.6738 52.5348 47.2188 51.1192C45.1484 49.1052 45.6786 45.1146 48.5148 44.1484C49.3692 43.8574 50.4022 43.951 51.2918 43.9536L54.5512 43.97C54.4098 43.7468 53.965 42.3332 53.79 41.9254L47.6092 27.6132C47.3628 27.0322 47.081 26.4424 46.8826 25.8438C46.1716 23.6984 48.0332 23.2532 49.5948 23.2482L60.8148 23.254L60.814 20.2574C59.3862 19.6427 57.5644 21.436 57.561 18.1077C57.558 15.1217 58.0888 15.0748 60.9878 15.0767C61.0534 13.214 60.7312 10.9092 63.0664 10.5841C65.7772 10.5488 67.0166 10.2215 67.1242 13.3644L67.1802 15.1227L69.1366 15.1852C69.386 15.2035 69.6848 15.211 69.9058 15.339L69.9688 15.3781C70.9564 15.9617 70.8852 18.1674 70.7146 19.2263L70.6994 19.3125C70.4842 20.5802 68.3938 20.188 67.4472 20.1908L67.4508 23.244L78.5238 23.2516C83.6042 23.261 81.085 27.0006 79.8338 29.8774L74.2878 42.8204C74.1514 43.1264 74.0736 43.616 73.8734 43.8594L77.2098 43.935C78.5782 43.9304 79.8672 43.7814 80.967 44.7528C82.7134 46.2954 82.987 49.3194 81.2812 51.0004C79.7808 52.479 77.7304 52.2468 75.8018 52.2406C76.0456 53.8372 76.0488 55.484 76.2432 57.0938C77.2664 65.567 80.389 73.3096 85.3812 80.2068L86.9026 82.1648C88.433 84.0314 89.72 86.1458 87.6546 88.2066C86.6002 89.2586 85.3818 89.0632 84.02 89.0638L65.1718 89.0642Z" fill="#0D0D0D"/>
<path fill-rule="evenodd" clip-rule="evenodd" d="M45.1342 89.0651C45.0639 89.0579 44.9948 89.0489 44.927 89.038C42.647 88.6722 42.1884 85.5564 43.1506 83.8438C43.4671 83.2804 43.8983 82.772 44.3219 82.2724C44.4441 82.1283 44.5657 81.9849 44.6838 81.8412L46.1448 79.9412C50.7708 73.7232 53.786 66.1834 54.886 58.5252L55.606 52.23C55.24 52.2157 54.8635 52.2193 54.4836 52.2229C52.9605 52.2373 51.3833 52.2522 50.2188 51.1192C48.1484 49.1052 48.6786 45.1146 51.5148 44.1484C51.8289 44.0414 52.1673 43.9864 52.5138 43.9598L51.2918 43.9536C51.1249 43.9531 50.953 43.9494 50.7781 43.9457C50.0209 43.9294 49.2089 43.912 48.5148 44.1484C45.6786 45.1146 45.1484 49.1052 47.2188 51.1192C48.3833 52.2522 49.9605 52.2373 51.4836 52.2229C51.8635 52.2193 52.24 52.2157 52.606 52.23L51.886 58.5252C50.786 66.1834 47.7708 73.7232 43.1448 79.9412L41.6838 81.8412C41.5657 81.9849 41.4441 82.1283 41.3219 82.2724C40.8983 82.7719 40.4671 83.2803 40.1506 83.8438C39.1884 85.5564 39.647 88.6722 41.927 89.038C42.3953 89.1132 42.9273 89.0958 43.4394 89.0791C43.6556 89.072 43.8682 89.065 44.071 89.0652L45.1342 89.0651ZM54.5421 43.9549L57.5512 43.97C57.4691 43.8404 57.2848 43.3097 57.1103 42.8075C56.9843 42.4445 56.8634 42.0965 56.79 41.9254L50.6092 27.6132C50.5437 27.459 50.4758 27.3041 50.4077 27.1486C50.219 26.7184 50.0283 26.2835 49.8826 25.8438C49.1914 23.7583 50.9312 23.2794 52.4634 23.2497L49.5948 23.2482C48.0332 23.2532 46.1716 23.6984 46.8826 25.8438C47.0283 26.2835 47.219 26.7184 47.4077 27.1486C47.4758 27.3041 47.5437 27.459 47.6092 27.6132L53.79 41.9254C53.8634 42.0965 53.9843 42.4445 54.1103 42.8075C54.2787 43.2921 54.4562 43.8032 54.5421 43.9549ZM84.072 89.0639L85.5993 89.0638C85.2684 89.0846 84.9267 89.0779 84.5746 89.0709C84.4094 89.0677 84.2418 89.0644 84.072 89.0639ZM65.6992 10.6567C65.1917 10.5367 64.5419 10.552 63.7379 10.5708C63.5249 10.5758 63.3012 10.581 63.0664 10.5841C61.0294 10.8676 61.0144 12.6575 61.0003 14.3464C60.9982 14.5937 60.9962 14.8388 60.9878 15.0767C58.0888 15.0748 57.558 15.1217 57.561 18.1077C57.5633 20.3563 58.3955 20.2672 59.3756 20.1624C59.8462 20.112 60.3508 20.058 60.814 20.2574L60.8148 23.2525L63.8148 23.254L63.814 20.2574C63.3508 20.058 62.8462 20.112 62.3756 20.1624C61.3955 20.2672 60.5633 20.3563 60.561 18.1077C60.558 15.1217 61.0888 15.0748 63.9878 15.0767C63.9962 14.8388 63.9982 14.5937 64.0003 14.3464C64.0135 12.7658 64.0275 11.0966 65.6992 10.6567Z" fill="#080808"/>
<path d="M86.8438 106.686L33.5366 106.675C31.9996 106.6 31.8684 105.59 31.8644 104.394C31.8574 102.317 31.3896 100.491 34.1938 100.469C35.1168 100.462 36.2038 100.574 37.0884 100.305C36.2204 99.329 33.5232 97.5956 34.0884 96.1376L34.1464 95.983C34.7044 94.3666 37.3462 92.056 38.7664 91.3708C39.7012 90.92 40.6844 90.8874 41.7014 90.8224L86.1544 90.817C89.547 90.818 91.0026 91.4304 93.278 94.2666C93.8174 94.939 94.4496 95.7396 94.3054 96.6562C94.1578 97.5954 92.2306 99.7572 91.3734 100.373L93.9946 100.458C96.8014 100.45 96.5226 101.676 96.5188 103.871C96.5126 107.416 95.3088 106.684 92.3774 106.686L86.8438 106.686Z" fill="#0D0D0D"/>
<path d="M86.8438 106.686L33.5366 106.675C31.9996 106.6 31.8684 105.59 31.8644 104.394C31.8574 102.317 31.3896 100.491 34.1938 100.469C35.1168 100.462 36.2038 100.574 37.0884 100.305C36.2204 99.329 33.5232 97.5956 34.0884 96.1376L34.1464 95.983C34.7044 94.3666 37.3462 92.056 38.7664 91.3708C39.7012 90.92 40.6844 90.8874 41.7014 90.8224L86.1544 90.817C89.547 90.818 91.0026 91.4304 93.278 94.2666C93.8174 94.939 94.4496 95.7396 94.3054 96.6562C94.1578 97.5954 92.2306 99.7572 91.3734 100.373L93.9946 100.458C96.8014 100.45 96.5226 101.676 96.5188 103.871C96.5126 107.416 95.3088 106.684 92.3774 106.686L86.8438 106.686Z" fill="#080808"/>
<path d="M90.0938 106.686L36.7866 106.675C35.2496 106.6 35.1184 105.59 35.1144 104.394C35.1074 102.317 34.6396 100.491 37.4438 100.469C38.3668 100.462 39.4538 100.574 40.3384 100.305C39.4704 99.329 36.7732 97.5956 37.3384 96.1376L37.3964 95.983C37.9544 94.3666 40.5962 92.056 42.0164 91.3708C42.9512 90.92 43.9344 90.8874 44.9514 90.8224L89.4044 90.817C92.797 90.818 94.2526 91.4304 96.528 94.2666C97.0674 94.939 97.6996 95.7396 97.5554 96.6562C97.4078 97.5954 95.4806 99.7572 94.6234 100.373L97.2446 100.458C100.051 100.45 99.7726 101.676 99.7688 103.871C99.7626 107.416 98.5588 106.684 95.6274 106.686L90.0938 106.686Z" fill="#0D0D0D"/>
</svg>
