<svg width="128" height="128" viewBox="0 0 128 128" fill="none" xmlns="http://www.w3.org/2000/svg">
<path d="M66.9062 91.4426L40.3518 91.4322C38.6684 91.3684 37.8058 89.4848 38.566 88.0566C38.7654 87.682 39.0548 87.348 39.3146 87.0134C47.0372 77.0636 50.0834 69.8482 51.0112 57.5644C48.7702 57.6582 46.9704 57.605 45.2722 55.923C42.3008 52.9798 43.696 47.438 47.875 46.4918C49.1206 46.2096 50.5142 46.307 51.786 46.3054L56.2946 46.1344C55.6462 45.75 54.195 44.6836 53.6562 44.2294C45.555 37.4012 47.521 23.301 57.3452 19.3089C58.223 18.9523 59.1596 18.7245 60.0808 18.5095L60.1212 13.1612C60.563 13.0682 61.0836 13.0917 61.5368 13.0673L66.0854 13.0631C68.581 13.0622 68.194 12.6569 68.1948 15.1099L68.194 18.5708C68.4248 18.7314 68.9414 18.7427 69.2274 18.8092C77.7452 20.7918 81.7986 30.6556 78.746 38.4688C77.5826 41.4464 75.462 43.7414 72.8248 45.4838C72.4508 45.731 72.1652 46.0754 71.7602 46.2472L77.5232 46.3052C78.3922 46.3062 79.3822 46.2144 80.2344 46.3882C86.393 47.6438 86.1408 56.7946 79.7102 57.543C78.9308 57.6336 78.084 57.5828 77.2968 57.5868C77.3234 59.2804 77.5638 60.979 77.8296 62.6494C79.234 71.4742 81.9718 77.3976 87.1382 84.5276L88.5452 86.4288C89.4936 87.6528 90.9322 89.3516 89.5014 90.8438C88.6548 91.7266 87.1866 91.4466 86.0906 91.4466L66.9062 91.4426Z" fill="#0D0D0D"/>
<path fill-rule="evenodd" clip-rule="evenodd" d="M40.3518 91.4322L66.9062 91.4426L86.0906 91.4466C86.2969 91.4466 86.5165 91.4565 86.7426 91.4667C87.2175 91.4882 87.7215 91.511 88.1929 91.4458L72.7436 91.4426L46.1892 91.4322C44.5058 91.3684 43.6432 89.4848 44.4034 88.0566C44.5634 87.756 44.7814 87.4815 44.9955 87.2119C45.0482 87.1455 45.1007 87.0795 45.152 87.0134C52.8746 77.0636 55.9208 69.8482 56.8486 57.5644C54.6076 57.6582 52.8078 57.605 51.1096 55.923C48.1382 52.9798 49.5334 47.438 53.7124 46.4918C54.7028 46.2674 55.7869 46.283 56.8288 46.298C57.0973 46.3019 57.3629 46.3057 57.6234 46.3054L62.132 46.1344C61.4836 45.75 60.0324 44.6836 59.4936 44.2294C51.3924 37.4012 53.3584 23.301 63.1826 19.3089C64.0604 18.9523 64.997 18.7245 65.9182 18.5095L65.9586 13.1612C66.2701 13.0957 66.6208 13.088 66.9593 13.0806C67.101 13.0775 67.2405 13.0745 67.3742 13.0673L67.8653 13.0668C67.5708 13.0035 67.0382 13.0628 66.0854 13.0631L61.5368 13.0673C61.4031 13.0745 61.2636 13.0775 61.1219 13.0806C60.7833 13.088 60.4327 13.0957 60.1212 13.1612L60.0808 18.5095C59.1596 18.7245 58.223 18.9523 57.3452 19.3089C47.521 23.301 45.555 37.4012 53.6562 44.2294C54.195 44.6836 55.6462 45.75 56.2946 46.1344L51.786 46.3054C51.5255 46.3057 51.2599 46.3019 50.9914 46.298C49.9495 46.283 48.8654 46.2674 47.875 46.4918C43.696 47.438 42.3008 52.9798 45.2722 55.923C46.9704 57.605 48.7702 57.6582 51.0112 57.5644C50.0834 69.8482 47.0372 77.0636 39.3146 87.0134C39.2633 87.0795 39.2108 87.1455 39.1581 87.2119C38.944 87.4815 38.726 87.756 38.566 88.0566C37.8058 89.4848 38.6684 91.3684 40.3518 91.4322Z" fill="#080808"/>
<path d="M86.6562 108.892H36.1742C34.887 108.898 32.3404 109.36 32.3066 107.375L32.3008 103.5C32.2938 100.385 32.372 101.304 34.3294 98.9364C36.237 96.6288 36.1294 95.4776 39.2362 95.4594L41.7872 95.45L89.2716 95.4498C92.0204 95.4514 91.7902 96.1868 93.4406 98.2314C95.1042 100.292 96.0522 100.446 96.0586 103.048L96.0578 106.994C96.051 109.426 94.2688 108.889 92.3254 108.891L86.6562 108.892Z" fill="#0D0D0D"/>
<path fill-rule="evenodd" clip-rule="evenodd" d="M37.9222 108.892H36.1742C35.9873 108.893 35.7738 108.904 35.5454 108.915C34.2004 108.981 32.3355 109.072 32.3066 107.375L32.3008 103.5C32.2955 101.141 32.339 101.096 33.2105 100.184C33.4898 99.8923 33.8542 99.5112 34.3294 98.9365C34.7674 98.4066 35.0992 97.9377 35.388 97.5295C36.357 96.1599 36.8427 95.4734 39.2362 95.4594L41.7872 95.45H45.8617L43.3107 95.4594C40.9173 95.4734 40.4316 96.1599 39.4625 97.5295C39.1737 97.9377 38.8419 98.4066 38.4039 98.9365C37.9288 99.5112 37.5644 99.8923 37.285 100.184C36.4136 101.096 36.37 101.141 36.3753 103.5L36.3811 107.375C36.3986 108.399 37.0849 108.772 37.9222 108.892ZM94.7343 108.891L92.4835 108.892C92.7379 108.895 92.9888 108.906 93.2325 108.917C93.7844 108.941 94.2993 108.963 94.7343 108.891Z" fill="#080808"/>
</svg>
