<svg width="128" height="128" viewBox="0 0 128 128" fill="none" xmlns="http://www.w3.org/2000/svg">
<path d="M66.9062 91.4426L40.3518 91.4322C38.6684 91.3684 37.8058 89.4848 38.566 88.0566C38.7654 87.682 39.0548 87.348 39.3146 87.0134C47.0372 77.0636 50.0834 69.8482 51.0112 57.5644C48.7702 57.6582 46.9704 57.605 45.2722 55.923C42.3008 52.9798 43.696 47.438 47.875 46.4918C49.1206 46.2096 50.5142 46.307 51.786 46.3054L56.2946 46.1344C55.6462 45.75 54.195 44.6836 53.6562 44.2294C45.555 37.4012 47.521 23.301 57.3452 19.3089C58.223 18.9523 59.1596 18.7245 60.0808 18.5095L60.1212 13.1612C60.563 13.0682 61.0836 13.0917 61.5368 13.0673L66.0854 13.0631C68.581 13.0622 68.194 12.6569 68.1948 15.1099L68.194 18.5708C68.4248 18.7314 68.9414 18.7427 69.2274 18.8092C77.7452 20.7918 81.7986 30.6556 78.746 38.4688C77.5826 41.4464 75.462 43.7414 72.8248 45.4838C72.4508 45.731 72.1652 46.0754 71.7602 46.2472L77.5232 46.3052C78.3922 46.3062 79.3822 46.2144 80.2344 46.3882C86.393 47.6438 86.1408 56.7946 79.7102 57.543C78.9308 57.6336 78.084 57.5828 77.2968 57.5868C77.3234 59.2804 77.5638 60.979 77.8296 62.6494C79.234 71.4742 81.9718 77.3976 87.1382 84.5276L88.5452 86.4288C89.4936 87.6528 90.9322 89.3516 89.5014 90.8438C88.6548 91.7266 87.1866 91.4466 86.0906 91.4466L66.9062 91.4426Z" fill="#0D0D0D"/>
<path d="M86.6562 108.892H36.1742C34.887 108.898 32.3404 109.36 32.3066 107.375L32.3008 103.5C32.2938 100.385 32.372 101.304 34.3294 98.9363C36.237 96.6287 36.1294 95.4775 39.2362 95.4593L41.7872 95.4499L89.2716 95.4497C92.0204 95.4513 91.7902 96.1867 93.4406 98.2313C95.1042 100.292 96.0522 100.446 96.0586 103.048L96.0578 106.994C96.051 109.426 94.2688 108.889 92.3254 108.891L86.6562 108.892Z" fill="#0D0D0D"/>
</svg>
