<svg width="128" height="128" viewBox="0 0 128 128" fill="none" xmlns="http://www.w3.org/2000/svg">
<path d="M64.6674 45.9462L55.0018 45.9644C54.0982 43.6208 53.4868 42.8432 52.0734 40.725L49.2932 36.3906C48.0104 34.3412 45.9088 31.6936 46.7492 29.1562C48.1364 24.9684 55.8742 24.2986 59.5802 24.0726L61.2732 24.0346C61.4774 24.0328 61.7662 24.0724 61.9488 23.9814L61.949 18.7506C60.714 18.7543 58.81 19.033 57.8338 18.1671C56.9006 17.3394 56.904 16.052 57.8066 15.1961C58.7644 14.2881 60.5972 14.5543 61.8278 14.5561C61.596 12.6779 61.773 10.6071 63.9892 10.2056L64.0764 10.2062C66.592 10.2431 66.502 12.7003 66.4436 14.5651L68.1634 14.5558C69.063 14.5529 69.8172 14.4797 70.5112 15.1652C71.405 16.0479 71.3472 17.3777 70.4178 18.2017C69.4586 19.0519 67.4786 18.8122 66.2634 18.7125L66.2748 24.0196L69.125 24.0562C72.6606 24.2308 79.1314 25.0024 81.1566 28.2184C82.5858 30.4882 81.4324 32.5538 80.2172 34.6022L75.7558 41.508C74.8432 42.9032 73.8666 44.2136 73.4954 45.8698C73.2236 45.9652 72.8172 45.9398 72.527 45.941L64.6674 45.9462Z" fill="#0D0D0D"/>
<path d="M73.9062 53.9993L52.2672 54.0019C51.5486 54.0015 50.7038 54.0859 50.0022 53.9685C46.6802 53.4129 46.2256 48.6767 49.607 47.8701C50.1752 47.7345 50.8062 47.7877 51.3876 47.7863L54.3964 47.7837L76.3626 47.7757C77.0638 47.7751 77.9962 47.6665 78.6688 47.8477L78.75 47.8713C81.8988 48.7489 81.8206 53.3815 78.435 53.9699C77.955 54.0533 77.3958 54.0025 76.9044 54.0033L73.9062 53.9993Z" fill="#0D0D0D"/>
<path d="M73.9062 86.9282L45.0696 86.918C44.571 86.9144 43.9394 86.9648 43.4706 86.779L43.4062 86.7528C40.8098 85.801 43.0244 82.7512 43.9416 81.445L46.8182 77.356C50.432 71.823 54.5364 62.5966 54.4936 55.856L73.8172 55.9366C73.9084 56.1078 73.8978 56.3226 73.912 56.5152C74.4176 63.3848 77.1224 70.3336 80.743 76.1214L84.7818 81.9896C85.6182 83.1704 87.001 85.5118 85.3642 86.6404L85.2812 86.696C84.5614 87.189 81.9876 86.9266 81.0594 86.9272L73.9062 86.9282Z" fill="#0D0D0D"/>
<path d="M69.7188 106.802L31.1208 106.726C31.0318 106.439 31.1066 105.853 31.104 105.539C31.076 102.239 31.6924 98.9643 35.4812 98.1117L36.2314 97.9106L36.187 94.9599C36.183 91.0239 38.0982 89.7924 41.9868 89.7892L58.6568 89.7841L85.5692 89.7815C86.5132 89.7819 87.5688 89.6898 88.4982 89.82C91.594 90.2544 92.2508 92.8486 92.251 95.4251L92.2448 97.8845C92.4246 98.0429 93.0546 98.0969 93.3124 98.1909C96.23 99.2539 97.2386 101.551 97.2436 104.408L97.2404 106.804L69.7188 106.802Z" fill="#0D0D0D"/>
</svg>
