<svg width="128" height="128" viewBox="0 0 128 128" fill="none" xmlns="http://www.w3.org/2000/svg">
<path d="M66.4299 44.1381L55.0632 44.1489C54.1941 44.031 51.5933 39.4606 51.1156 38.5697C48.8655 34.3749 46.6723 28.6383 46.5198 23.7814L46.5003 20.4747C46.4974 18.3784 46.4736 17.8235 48.9376 17.8876L60.0831 17.8781C60.1335 17.2445 60.0982 16.5869 60.0974 15.9508L60.0935 12.5039C60.0927 11.2883 59.7917 10.418 61.1121 9.89902L64.5016 9.87502C67.5844 9.87151 67.1956 10.4508 67.1831 12.9513L67.1649 17.8834L78.7183 17.9018C80.8469 17.9034 81.0097 18.191 81.0195 20.3929C81.0538 28.0339 79.3092 34.2086 75.109 40.7723L73.7235 42.8285C72.7313 44.2326 72.9329 44.1298 71.2404 44.1333L66.4299 44.1381Z" fill="#0D0D0D"/>
<path d="M78.6105 52.5386L51.9079 52.5755C50.8505 52.5761 49.6552 52.6852 48.6116 52.5513C44.8748 52.0718 44.938 46.2084 48.9668 45.8593C49.3534 45.7967 49.8029 45.8384 50.1975 45.8371L72.7832 45.8308C74.83 45.8312 76.9783 45.7031 79.0152 45.89C82.5293 46.2127 82.7256 52.0326 78.6105 52.5386Z" fill="#0D0D0D"/>
<path d="M60.049 83.5698L46.9581 83.6043C47.0809 83.455 47.2115 83.3103 47.2916 83.1329C50.3949 76.2674 52.4491 69.1885 53.4781 61.7232L53.816 58.7522C53.8672 57.9905 53.8476 57.2319 53.9365 56.4721L68.1693 56.4506L73.8296 56.4373C74.0105 64.121 76.6401 73.6297 79.7129 80.5036L80.7679 82.6423C80.8959 82.9064 80.9686 83.2797 81.1858 83.4802L60.049 83.5698Z" fill="#0D0D0D"/>
<path d="M82.0542 106.753L39.3991 106.72C37.994 106.58 38.0332 105.326 38.0314 104.346L38.0283 101.915C38.0268 100 37.9278 98.0235 38.0463 96.117C38.1324 94.7306 39.6142 93.5179 40.4945 92.5641L45.4207 87.216C45.5197 87.1143 45.6364 87.0458 45.7664 86.9917L77.9701 86.9718C79.3917 86.9718 80.8964 86.8758 82.3107 86.9843C82.8843 87.0284 83.9513 88.5919 84.3743 89.0352L87.3951 92.169C88.5381 93.3674 89.8167 94.4774 89.8813 96.2414L89.8852 102C89.879 105.702 90.7122 106.748 86.1807 106.754L82.0542 106.753Z" fill="#0D0D0D"/>
</svg>
