<svg width="128" height="128" viewBox="0 0 128 128" fill="none" xmlns="http://www.w3.org/2000/svg">
<path d="M67.9844 39.7403L54.7604 39.7389C54.1632 39.7383 53.5298 39.7781 52.9376 39.7041C50.7458 39.4299 49.9022 36.9127 51.7588 35.6325L51.833 35.5827C51.5342 34.5859 50.8546 33.5639 50.3824 32.6255L46.2224 24.3569C45.8528 23.5857 45.8108 23.1829 45.808 22.3379L45.7952 14.2251L52.947 14.2209L52.9404 22.5577L60.279 22.5619L60.2992 14.0347L67.8374 14.0677L67.8868 22.5565L75.2078 22.5507L75.2378 14.1874L82.4548 14.1953C82.5382 14.5118 82.484 14.9454 82.4844 15.2738L82.4932 21.8765C82.4944 23.0803 82.592 23.6179 82.0454 24.7005L77.282 34.3885C77.1028 34.7383 76.6606 35.4937 76.6682 35.5155C76.8698 36.0943 79.255 36.7459 77.0354 38.9689C76.003 40.0027 74.579 39.7391 73.2556 39.7407L67.9844 39.7403Z" fill="#F4F4F4"/>
<path d="M71.6562 86.6604L49.0642 86.6712C48.3106 86.672 47.0418 86.8878 46.3534 86.5366L46.2812 86.4976C44.7614 85.6954 45.7028 84.4644 46.4062 83.3776L47.0674 82.288C51.205 75.0308 54.004 66.8882 55.6072 58.704L56.6434 51.9658C56.9076 50.5132 56.836 48.9058 56.8764 47.4308L53.0244 47.4288C52.4218 47.4296 51.6978 47.5048 51.1078 47.3988C49.4548 47.1022 48.951 45.5062 50.113 44.3562C51.2152 43.2654 52.9752 43.419 54.4022 43.4146L57.0864 43.4096L75.7322 43.4152C76.2454 43.4188 76.7404 43.3992 77.2298 43.5808C79.5824 44.4534 79.6298 46.835 77.8018 47.3092C77.0212 47.5118 76.0774 47.4256 75.2694 47.4248L71.4628 47.4096C71.5084 53.0216 72.501 58.727 74.027 64.1264L75.5938 68.9208C77.0586 73.19 78.784 77.3812 80.9964 81.3228L81.9222 82.8094C82.3354 83.411 83.0106 84.1724 83.0604 84.92C83.1686 86.5484 81.7582 86.653 80.6326 86.655L71.6562 86.6604Z" fill="#F4F4F4"/>
<path d="M46.2188 107.547L37.25 107.546C35.4134 107.537 35.0408 106.952 35.1604 105.062C35.3538 102.01 36.0966 97.9211 39.7812 97.2849C40.8112 97.1071 42.953 97.4413 43.7188 97.1309L43.7314 97.0163C43.456 96.7561 43.0702 96.6369 42.727 96.4843C39.3146 94.9675 40.8246 90.7153 44.0116 90.3291C44.4302 90.2783 44.887 90.3137 45.311 90.3149L82.4184 90.3173C84.3104 90.2821 87.267 90.3243 87.6842 92.8503L87.6972 92.9377C88.267 96.5943 82.463 97.1819 86.0724 97.1861C90.4222 97.1909 92.1112 97.8039 93.3576 102.406C93.637 103.439 93.6372 104.802 93.6594 105.875C93.6974 107.703 92.2842 107.55 90.8882 107.552L46.2188 107.547Z" fill="#F4F4F4"/>
</svg>
