<svg width="128" height="128" viewBox="0 0 128 128" fill="none" xmlns="http://www.w3.org/2000/svg">
<path d="M65.1718 89.0641L44.071 89.0651C43.388 89.0645 42.593 89.1449 41.927 89.0379C39.647 88.6721 39.1884 85.5563 40.1506 83.8437C40.5584 83.1177 41.1566 82.4831 41.6838 81.8411L43.1448 79.9411C47.7708 73.7231 50.786 66.1833 51.886 58.5251L52.606 52.2299C50.773 52.1583 48.6738 52.5347 47.2188 51.1191C45.1484 49.1051 45.6786 45.1145 48.5148 44.1483C49.3692 43.8573 50.4022 43.9509 51.2918 43.9535L54.5512 43.9699C54.4098 43.7467 53.965 42.3331 53.79 41.9253L47.6092 27.6131C47.3628 27.0321 47.081 26.4423 46.8826 25.8437C46.1716 23.6983 48.0332 23.2531 49.5948 23.2481L60.8148 23.2539L60.814 20.2573C59.3862 19.6426 57.5644 21.4359 57.561 18.1075C57.558 15.1216 58.0888 15.0747 60.9878 15.0766C61.0534 13.2139 60.7312 10.909 63.0664 10.584C65.7772 10.5487 67.0166 10.2214 67.1242 13.3643L67.1802 15.1225L69.1366 15.1851C69.386 15.2034 69.6848 15.2109 69.9058 15.3389L69.9688 15.3779C70.9564 15.9616 70.8852 18.1673 70.7146 19.2261L70.6994 19.3124C70.4842 20.5801 68.3938 20.1879 67.4472 20.1907L67.4508 23.2439L78.5238 23.2515C83.6042 23.2609 81.085 27.0005 79.8338 29.8773L74.2878 42.8203C74.1514 43.1263 74.0736 43.6159 73.8734 43.8593L77.2098 43.9349C78.5782 43.9303 79.8672 43.7813 80.967 44.7527C82.7134 46.2953 82.987 49.3193 81.2812 51.0003C79.7808 52.4789 77.7304 52.2467 75.8018 52.2405C76.0456 53.8371 76.0488 55.4839 76.2432 57.0937C77.2664 65.5669 80.389 73.3095 85.3812 80.2067L86.9026 82.1647C88.433 84.0313 89.72 86.1457 87.6546 88.2065C86.6002 89.2585 85.3818 89.0631 84.02 89.0637L65.1718 89.0641Z" fill="#F4F4F4"/>
<path d="M86.8438 106.686L33.5366 106.675C31.9996 106.6 31.8684 105.59 31.8644 104.394C31.8574 102.316 31.3896 100.491 34.1938 100.469C35.1168 100.461 36.2038 100.574 37.0884 100.305C36.2204 99.3289 33.5232 97.5955 34.0884 96.1375L34.1464 95.9829C34.7044 94.3665 37.3462 92.0559 38.7664 91.3707C39.7012 90.9199 40.6844 90.8873 41.7014 90.8223L86.1544 90.8169C89.547 90.8179 91.0026 91.4303 93.278 94.2665C93.8174 94.9389 94.4496 95.7395 94.3054 96.6561C94.1578 97.5953 92.2306 99.7571 91.3734 100.373L93.9946 100.458C96.8014 100.45 96.5226 101.676 96.5188 103.871C96.5126 107.416 95.3088 106.684 92.3774 106.686L86.8438 106.686Z" fill="#F4F4F4"/>
</svg>
