<svg width="128" height="128" viewBox="0 0 128 128" fill="none" xmlns="http://www.w3.org/2000/svg">
<path d="M66.6316 44.1381L55.265 44.1489C54.3959 44.031 51.7951 39.4606 51.3174 38.5697C49.0673 34.3749 46.8741 28.6383 46.7215 23.7814L46.7021 20.4747C46.6992 18.3784 46.6754 17.8235 49.1394 17.8876L60.2849 17.8781C60.3353 17.2445 60.3 16.5869 60.2992 15.9508L60.2953 12.5039C60.2945 11.2883 59.9935 10.418 61.3139 9.89902L64.7034 9.87502C67.7861 9.87151 67.3974 10.4508 67.3849 12.9513L67.3667 17.8834L78.9201 17.9018C81.0487 17.9034 81.2115 18.191 81.2213 20.3929C81.2556 28.0339 79.511 34.2086 75.3108 40.7723L73.9252 42.8285C72.9331 44.2326 73.1347 44.1298 71.4422 44.1333L66.6316 44.1381Z" fill="#F4F4F4"/>
<path d="M78.5568 52.5386L51.8541 52.5755C50.7968 52.5761 49.6015 52.6852 48.5579 52.5513C44.8211 52.0718 44.8843 46.2084 48.913 45.8593C49.2997 45.7967 49.7491 45.8384 50.1438 45.8371L72.7295 45.8308C74.7763 45.8312 76.9245 45.7031 78.9615 45.89C82.4756 46.2127 82.6718 52.0326 78.5568 52.5386Z" fill="#F4F4F4"/>
<path d="M60.049 83.5698L46.9581 83.6043C47.0809 83.455 47.2115 83.3103 47.2916 83.1329C50.3949 76.2674 52.4491 69.1885 53.4781 61.7232L53.816 58.7522C53.8672 57.9905 53.8476 57.2319 53.9365 56.4721L68.1693 56.4506L73.8296 56.4373C74.0105 64.121 76.6401 73.6297 79.7129 80.5036L80.7679 82.6423C80.8959 82.9064 80.9686 83.2797 81.1858 83.4802L60.049 83.5698Z" fill="#F4F4F4"/>
<path d="M82.0542 106.753L39.3991 106.72C37.994 106.58 38.0332 105.326 38.0314 104.346L38.0283 101.915C38.0268 100 37.9278 98.0235 38.0463 96.117C38.1324 94.7306 39.6142 93.5179 40.4945 92.5641L45.4207 87.216C45.5197 87.1143 45.6364 87.0458 45.7664 86.9917L77.9701 86.9718C79.3917 86.9718 80.8964 86.8758 82.3107 86.9843C82.8843 87.0284 83.9513 88.5919 84.3743 89.0352L87.3951 92.169C88.5381 93.3674 89.8167 94.4774 89.8813 96.2414L89.8852 102C89.879 105.702 90.7122 106.748 86.1807 106.754L82.0542 106.753Z" fill="#F4F4F4"/>
</svg>
