<svg width="128" height="128" viewBox="0 0 128 128" fill="none" xmlns="http://www.w3.org/2000/svg">
<path d="M53.0229 48.5958C53.1549 47.8671 53.7819 47.3379 54.5134 47.3379H73.5058C74.2373 47.3379 74.8643 47.8671 74.9963 48.5958L79.1379 71.465C79.3086 72.4078 78.5938 73.2767 77.6474 73.2767H50.3717C49.4253 73.2767 48.7105 72.4078 48.8813 71.465L53.0229 48.5958Z" fill="#0D0D0D"/>
<path d="M53.186 47.7083C49.1833 46.8229 45.2298 49.3918 44.3557 53.446L41.3873 67.2137C41.2802 67.7106 41.591 68.2014 42.0816 68.3099L42.5188 68.4066L42.1811 69.9728C41.9805 70.0192 41.7819 70.0775 41.5864 70.1475C40.532 70.525 39.62 71.226 38.9773 72.153C38.3345 73.0799 37.9929 74.1868 38.0001 75.3195C38.0041 75.9462 38.1147 76.5636 38.3236 77.1458C38.6042 77.9278 39.5572 78.0783 40.2233 77.5915C40.8895 77.1046 40.98 76.1322 40.9748 75.3002C40.9716 74.7938 41.1243 74.2991 41.4116 73.8847C41.6989 73.4703 42.1066 73.157 42.5779 72.9882C43.0493 72.8194 43.5608 72.8036 44.0414 72.943C44.522 73.0824 44.9478 73.3701 45.2595 73.766C45.5712 74.1618 45.7533 74.6463 45.7806 75.1519C45.8078 75.6575 45.6788 76.1591 45.4115 76.587C44.9722 77.2901 44.541 78.1636 44.8517 78.9338C45.1624 79.704 46.0497 80.0872 46.6964 79.5742C47.1779 79.1923 47.5944 78.7277 47.9252 78.1981C48.5232 77.2409 48.8118 76.1187 48.7509 74.9877C48.69 73.8566 48.2825 72.7729 47.5852 71.8873C47.4525 71.7188 47.3106 71.5591 47.1604 71.4087L47.5669 69.5232L47.9553 69.6091C48.4459 69.7176 48.9304 69.4028 49.0375 68.9059L53.5007 48.2052C53.5493 47.9799 53.4084 47.7575 53.186 47.7083Z" fill="#0D0D0D"/>
<path d="M74.814 47.7083C78.8167 46.8229 82.7702 49.3918 83.6443 53.446L86.6127 67.2137C86.7198 67.7106 86.409 68.2014 85.9184 68.3099L85.4812 68.4066L85.8189 69.9728C86.0195 70.0192 86.2181 70.0775 86.4136 70.1475C87.468 70.525 88.38 71.226 89.0227 72.153C89.6655 73.0799 90.0071 74.1868 89.9999 75.3195C89.9959 75.9462 89.8853 76.5636 89.6764 77.1458C89.3959 77.9278 88.4428 78.0783 87.7767 77.5915C87.1106 77.1046 87.02 76.1322 87.0252 75.3002C87.0284 74.7938 86.8757 74.2991 86.5884 73.8847C86.3011 73.4703 85.8934 73.157 85.4221 72.9882C84.9507 72.8194 84.4392 72.8036 83.9586 72.943C83.478 73.0824 83.0522 73.3701 82.7405 73.766C82.4288 74.1618 82.2467 74.6463 82.2194 75.1519C82.1922 75.6575 82.3212 76.1591 82.5885 76.587C83.0278 77.2901 83.459 78.1636 83.1483 78.9338C82.8376 79.704 81.9503 80.0872 81.3036 79.5742C80.8222 79.1923 80.4057 78.7277 80.0748 78.1981C79.4768 77.2409 79.1882 76.1187 79.2491 74.9877C79.3101 73.8566 79.7175 72.7729 80.4148 71.8873C80.5475 71.7188 80.6894 71.5591 80.8396 71.4087L80.4331 69.5232L80.0447 69.6091C79.5541 69.7176 79.0696 69.4028 78.9625 68.9059L74.4993 48.2052C74.4507 47.9799 74.5916 47.7575 74.814 47.7083Z" fill="#0D0D0D"/>
<path d="M77.7991 73.2769H50.22V78.3418L48.8562 106.276H62.7973V90.0066H65.2218V106.276H79.1629L77.7991 78.3418V73.2769Z" fill="#0D0D0D"/>
<path fill-rule="evenodd" clip-rule="evenodd" d="M56.7011 44.1478C56.6916 42.7123 56.9572 41.9654 57.8313 40.8681L61.2314 36.6651C61.1516 36.5569 61.0738 36.4436 60.9955 36.3295C60.8299 36.0883 60.662 35.8438 60.4681 35.6366C59.3403 36.4273 58.9034 36.541 57.5241 36.5424L56.0589 36.5434C55.5238 36.5438 55.3345 36.5369 55.1729 36.6004C55.0051 36.6663 54.867 36.808 54.4025 37.1124L52.5677 38.3286C51.0972 39.3134 50.6863 38.6787 50.0034 37.6242C49.8908 37.4503 49.7707 37.2649 49.6373 37.0735L49.0658 36.2377C48.3428 35.1537 48.4896 34.8984 49.4246 34.0504L58.2139 26.229L55.77 23.6085V21.75L57.8865 22.008L60.4261 24.477L61.2245 25.3133C61.2497 25.3401 61.2715 25.364 61.291 25.3853C61.4305 25.5381 61.4486 25.558 61.713 25.5751L62.3817 25.6223C62.8572 25.6792 63.3366 25.7478 63.8046 25.8507C68.1838 26.8138 71.8621 30.7508 71.5497 35.3833L71.4709 36.8826C71.4668 36.9597 71.457 37.0358 71.4472 37.1118C71.4381 37.1826 71.429 37.2533 71.4245 37.3245L71.1668 41.6619L70.9044 45.8697C70.9002 45.9278 70.8973 45.9868 70.8942 46.0462C70.8857 46.2153 70.877 46.3873 70.841 46.5492L57.1856 46.5481C56.966 45.934 56.7343 44.7682 56.7011 44.1478ZM58.6615 31.3716C59.1965 31.3716 59.6301 30.9379 59.6301 30.4029C59.6301 29.868 59.1965 29.4343 58.6615 29.4343C58.1265 29.4343 57.6929 29.868 57.6929 30.4029C57.6929 30.9379 58.1265 31.3716 58.6615 31.3716Z" fill="#0D0D0D"/>
<path d="M58.5048 55.9077H60.4593V67.0124H58.5048V55.9077ZM67.5367 55.9077H69.4911V67.0124H67.5367V55.9077ZM59.5561 60.5569H68.4695V62.2744H59.5561V60.5569Z" fill="#AFAFAF"/>
</svg>
