<svg width="128" height="128" viewBox="0 0 128 128" fill="none" xmlns="http://www.w3.org/2000/svg">
<path d="M74.2802 72.1548H53.7198V77.3905L52.7031 106.266H63.0963V89.4484H64.9038V106.266H75.2969L74.2802 77.3905V72.1548Z" fill="#0D0D0D"/>
<path d="M52.7959 49.3721C52.9308 48.1756 53.5717 47.3066 54.3192 47.3066H73.7299C74.4774 47.3066 75.1183 48.1756 75.2531 49.3721L79.4859 86.9219C79.6605 88.4699 78.9299 89.8967 77.9627 89.8967H50.0864C49.1192 89.8967 48.3886 88.4699 48.5631 86.9219L52.7959 49.3721Z" fill="#0D0D0D"/>
<path d="M53.186 47.6814C49.1833 46.7961 45.2298 49.3649 44.3557 53.4192L41.3873 67.1869C41.2802 67.6838 41.591 68.1745 42.0816 68.2831L42.5188 68.3798L42.1811 69.9459C41.9805 69.9924 41.7819 70.0506 41.5864 70.1206C40.532 70.4982 39.62 71.1992 38.9773 72.1261C38.3345 73.0531 37.9929 74.1599 38.0001 75.2926C38.0041 75.9194 38.1147 76.5368 38.3236 77.1189C38.6042 77.9009 39.5572 78.0515 40.2233 77.5646C40.8895 77.0777 40.98 76.1053 40.9748 75.2733C40.9716 74.767 41.1243 74.2722 41.4116 73.8579C41.6989 73.4435 42.1066 73.1301 42.5779 72.9614C43.0493 72.7926 43.5608 72.7768 44.0414 72.9162C44.522 73.0556 44.9478 73.3432 45.2595 73.7391C45.5712 74.135 45.7533 74.6194 45.7806 75.125C45.8078 75.6306 45.6788 76.1322 45.4115 76.5601C44.9722 77.2632 44.541 78.1368 44.8517 78.907C45.1624 79.6772 46.0497 80.0604 46.6964 79.5474C47.1779 79.1654 47.5944 78.7009 47.9252 78.1713C48.5232 77.2141 48.8118 76.0919 48.7509 74.9608C48.69 73.8298 48.2825 72.7461 47.5852 71.8605C47.4525 71.692 47.3106 71.5322 47.1604 71.3819L47.5669 69.4963L47.9553 69.5823C48.4459 69.6908 48.9304 69.3759 49.0375 68.879L53.5007 48.1783C53.5493 47.9531 53.4084 47.7306 53.186 47.6814Z" fill="#0D0D0D"/>
<path d="M74.814 47.6814C78.8167 46.7961 82.7702 49.3649 83.6443 53.4192L86.6127 67.1869C86.7198 67.6838 86.409 68.1745 85.9184 68.2831L85.4812 68.3798L85.8189 69.9459C86.0195 69.9924 86.2181 70.0506 86.4136 70.1206C87.468 70.4982 88.38 71.1992 89.0227 72.1261C89.6655 73.0531 90.007 74.1599 89.9999 75.2926C89.9959 75.9194 89.8853 76.5368 89.6764 77.1189C89.3958 77.9009 88.4428 78.0515 87.7767 77.5646C87.1105 77.0777 87.0199 76.1053 87.0252 75.2733C87.0284 74.767 86.8757 74.2722 86.5884 73.8579C86.3011 73.4435 85.8934 73.1301 85.4221 72.9614C84.9507 72.7926 84.4392 72.7768 83.9586 72.9162C83.478 73.0556 83.0522 73.3432 82.7405 73.7391C82.4288 74.135 82.2467 74.6194 82.2194 75.125C82.1922 75.6306 82.3212 76.1322 82.5885 76.5601C83.0278 77.2632 83.459 78.1368 83.1483 78.907C82.8376 79.6772 81.9503 80.0604 81.3036 79.5474C80.8221 79.1654 80.4056 78.7009 80.0748 78.1713C79.4768 77.2141 79.1882 76.0919 79.2491 74.9608C79.31 73.8298 79.7175 72.7461 80.4148 71.8605C80.5475 71.692 80.6894 71.5322 80.8396 71.3819L80.4331 69.4963L80.0447 69.5823C79.5541 69.6908 79.0696 69.3759 78.9625 68.879L74.4993 48.1783C74.4507 47.9531 74.5916 47.7306 74.814 47.6814Z" fill="#0D0D0D"/>
<path fill-rule="evenodd" clip-rule="evenodd" d="M63.1914 22.3602C63.1914 21.9541 63.5205 21.625 63.9266 21.625C64.3326 21.625 64.6617 21.9541 64.6617 22.3602V24.2225H66.7691C66.9856 24.2225 67.1612 24.3981 67.1612 24.6146C67.1612 24.8311 66.9856 25.0067 66.7691 25.0067H64.6617V27.5097H67.6737C68.422 27.5097 69.0286 28.1241 69.0286 28.882V29.314C71.0826 29.5206 72.6868 31.2759 72.6868 33.4107V42.8797C72.6868 44.568 71.6835 46.0189 70.248 46.6542V47.5457C70.248 47.9246 69.9447 48.2318 69.5705 48.2318H58.325C57.9508 48.2318 57.6475 47.9246 57.6475 47.5457V46.6542C56.212 46.0189 55.2087 44.568 55.2087 42.8797V33.4107C55.2087 31.2759 56.8129 29.5206 58.8669 29.314V28.882C58.8669 28.1241 59.4735 27.5097 60.2218 27.5097H63.1914V25.0067H61.0839C60.8674 25.0067 60.6918 24.8311 60.6918 24.6146C60.6918 24.3981 60.8674 24.2225 61.0839 24.2225H63.1914V22.3602ZM67.722 40.0132C65.2928 41.6707 62.5993 41.662 60.185 40.0132C59.894 39.8154 59.6326 40.1586 59.8286 40.4755C60.5651 41.662 62.0499 42.7176 63.9505 42.7176C65.8511 42.7176 67.3389 41.662 68.0724 40.4755C68.2684 40.1586 68.0071 39.8154 67.7161 40.0132H67.722ZM61.2598 36.2928C61.2598 37.0507 60.6608 37.6651 59.9218 37.6651C59.1829 37.6651 58.5839 37.0507 58.5839 36.2928C58.5839 35.5349 59.1829 34.9205 59.9218 34.9205C60.6608 34.9205 61.2598 35.5349 61.2598 36.2928ZM69.2875 36.2928C69.2875 37.0507 68.6885 37.6651 67.9495 37.6651C67.2106 37.6651 66.6116 37.0507 66.6116 36.2928C66.6116 35.5349 67.2106 34.9205 67.9495 34.9205C68.6885 34.9205 69.2875 35.5349 69.2875 36.2928Z" fill="#0D0D0D"/>
<path d="M62.5786 62.6526H64.9624L69.8929 67.6571H67.4647L62.5786 62.6526ZM63.9852 67.0945C62.7217 67.0945 61.6112 66.8527 60.6538 66.369C59.6963 65.8853 58.951 65.2141 58.418 64.3553C57.885 63.4867 57.6185 62.4799 57.6185 61.3348C57.6185 60.1898 57.885 59.1879 58.418 58.3292C58.951 57.4605 59.6963 56.7844 60.6538 56.3007C61.6112 55.817 62.7217 55.5752 63.9852 55.5752C65.2486 55.5752 66.3591 55.817 67.3166 56.3007C68.2741 56.7844 69.0193 57.4605 69.5523 58.3292C70.0854 59.1879 70.3519 60.1898 70.3519 61.3348C70.3519 62.4799 70.0854 63.4867 69.5523 64.3553C69.0193 65.2141 68.2741 65.8853 67.3166 66.369C66.3591 66.8527 65.2486 67.0945 63.9852 67.0945ZM63.9852 65.3473C64.8834 65.3473 65.6583 65.1845 66.3098 64.8587C66.9612 64.533 67.4647 64.0691 67.82 63.4669C68.1852 62.8648 68.3678 62.1541 68.3678 61.3348C68.3678 60.5156 68.1852 59.8049 67.82 59.2027C67.4647 58.6006 66.9612 58.1367 66.3098 57.8109C65.6583 57.4852 64.8834 57.3223 63.9852 57.3223C63.0968 57.3223 62.3219 57.4852 61.6606 57.8109C61.0091 58.1367 60.5008 58.6006 60.1355 59.2027C59.7802 59.8049 59.6025 60.5156 59.6025 61.3348C59.6025 62.1541 59.7802 62.8648 60.1355 63.4669C60.5008 64.0691 61.0091 64.533 61.6606 64.8587C62.3219 65.1845 63.0968 65.3473 63.9852 65.3473Z" fill="#AFAFAF"/>
</svg>
