<svg width="128" height="128" viewBox="0 0 128 128" fill="none" xmlns="http://www.w3.org/2000/svg">
<path d="M53.0472 50.0219C53.1792 49.3114 53.8063 48.7954 54.5377 48.7954H73.5302C74.2616 48.7954 74.8887 49.3114 75.0206 50.0219L79.1623 72.3188C79.333 73.238 78.6182 74.0852 77.6718 74.0852H50.3961C49.4497 74.0852 48.7349 73.238 48.9056 72.3187L53.0472 50.0219Z" fill="#0D0D0D"/>
<path d="M53.186 49.1482C49.1833 48.285 45.2298 50.7896 44.3557 54.7424L41.3873 68.1656C41.2802 68.6501 41.591 69.1286 42.0816 69.2344L42.5188 69.3286L42.1811 70.8556C41.9805 70.9009 41.7819 70.9577 41.5864 71.0259C40.532 71.394 39.62 72.0775 38.9773 72.9813C38.3345 73.885 37.9929 74.9642 38.0001 76.0685C38.0041 76.6796 38.1147 77.2816 38.3236 77.8491C38.6042 78.6115 39.5572 78.7584 40.2233 78.2837C40.8895 77.809 40.98 76.8609 40.9748 76.0497C40.9716 75.556 41.1243 75.0737 41.4116 74.6697C41.6989 74.2657 42.1066 73.9601 42.5779 73.7956C43.0493 73.631 43.5608 73.6157 44.0414 73.7516C44.522 73.8875 44.9478 74.1679 45.2595 74.5539C45.5712 74.9399 45.7533 75.4122 45.7806 75.9051C45.8078 76.3981 45.6788 76.8871 45.4115 77.3043C44.9722 77.9898 44.541 78.8415 44.8517 79.5925C45.1624 80.3434 46.0497 80.717 46.6964 80.2168C47.1779 79.8444 47.5944 79.3915 47.9252 78.8751C48.5232 77.9419 48.8118 76.8478 48.7509 75.745C48.69 74.6423 48.2825 73.5857 47.5852 72.7223C47.4525 72.558 47.3106 72.4022 47.1604 72.2556L47.5669 70.4173L47.9553 70.5011C48.4459 70.6069 48.9304 70.2999 49.0375 69.8154L53.5007 49.6327C53.5493 49.4131 53.4084 49.1962 53.186 49.1482Z" fill="#0D0D0D"/>
<path d="M74.814 49.1482C78.8167 48.285 82.7702 50.7896 83.6443 54.7424L86.6126 68.1656C86.7198 68.6501 86.4089 69.1286 85.9184 69.2344L85.4812 69.3286L85.8188 70.8556C86.0195 70.9009 86.2181 70.9577 86.4135 71.0259C87.4679 71.394 88.3799 72.0775 89.0227 72.9813C89.6655 73.885 90.007 74.9642 89.9999 76.0685C89.9959 76.6796 89.8853 77.2816 89.6764 77.8491C89.3958 78.6115 88.4428 78.7584 87.7766 78.2837C87.1105 77.809 87.0199 76.8609 87.0252 76.0497C87.0284 75.556 86.8757 75.0737 86.5884 74.6697C86.3011 74.2657 85.8934 73.9601 85.422 73.7956C84.9507 73.631 84.4392 73.6157 83.9586 73.7516C83.478 73.8875 83.0522 74.1679 82.7405 74.5539C82.4288 74.9399 82.2466 75.4122 82.2194 75.9051C82.1922 76.3981 82.3212 76.8871 82.5885 77.3043C83.0277 77.9898 83.459 78.8415 83.1483 79.5925C82.8376 80.3434 81.9503 80.717 81.3036 80.2168C80.8221 79.8444 80.4056 79.3915 80.0747 78.8751C79.4767 77.9419 79.1881 76.8478 79.2491 75.745C79.31 74.6423 79.7175 73.5857 80.4148 72.7223C80.5475 72.558 80.6894 72.4022 80.8396 72.2556L80.4331 70.4173L80.0447 70.5011C79.5541 70.6069 79.0696 70.2999 78.9624 69.8154L74.4993 49.6327C74.4507 49.4131 74.5916 49.1962 74.814 49.1482Z" fill="#0D0D0D"/>
<path d="M77.7991 74.0767H50.22V79.0149L48.8562 106.25H62.7973V90.3878H65.2218V106.25H79.1629L77.7991 79.0149V74.0767Z" fill="#0D0D0D"/>
<path fill-rule="evenodd" clip-rule="evenodd" d="M56.0567 21.75C54.8764 21.75 53.9197 22.7068 53.9197 23.887V29.5158C53.9197 29.7388 53.9538 29.9537 54.0172 30.1558C53.9532 30.4596 53.9197 30.7744 53.9197 31.097V41.6903C53.9197 43.579 55.0708 45.2022 56.718 45.9129V46.9102C56.718 47.3342 57.0661 47.6779 57.4954 47.6779H70.399C70.8283 47.6779 71.1764 47.3342 71.1764 46.9102V45.9129C72.8236 45.2022 73.9748 43.579 73.9748 41.6903V31.097C73.9748 30.7795 73.9422 30.4695 73.8803 30.1701C73.9465 29.9639 73.9823 29.744 73.9823 29.5158V23.887C73.9823 22.7068 73.0255 21.75 71.8453 21.75C70.665 21.75 69.7083 22.7068 69.7083 23.887V25.5772C69.5125 24.9506 68.9213 24.4953 68.2225 24.4953H66.0377V23.887C66.0377 22.7068 65.0809 21.75 63.9007 21.75C62.7205 21.75 61.7637 22.7068 61.7637 23.887V24.4953H59.6719C58.9818 24.4953 58.3968 24.9394 58.1937 25.5539V23.887C58.1937 22.7068 57.2369 21.75 56.0567 21.75ZM60.8629 34.3213C60.8629 35.1692 60.1756 35.8566 59.3277 35.8566C58.4798 35.8566 57.7924 35.1692 57.7924 34.3213C57.7924 33.4734 58.4798 32.7861 59.3277 32.7861C60.1756 32.7861 60.8629 33.4734 60.8629 34.3213ZM70.0742 34.3213C70.0742 35.1692 69.3869 35.8566 68.539 35.8566C67.6911 35.8566 67.0038 35.1692 67.0038 34.3213C67.0038 33.4734 67.6911 32.7861 68.539 32.7861C69.3869 32.7861 70.0742 33.4734 70.0742 34.3213ZM57.7411 39.8669C57.7411 39.3389 58.1691 38.9109 58.6971 38.9109H69.054C69.582 38.9109 70.0099 39.3389 70.0099 39.8669C70.0099 40.3949 69.582 40.8228 69.054 40.8228H58.6971C58.1691 40.8228 57.7411 40.3949 57.7411 39.8669Z" fill="#0D0D0D"/>
<path d="M60.6022 60.9005H65.1181C65.7696 60.9005 66.2828 60.7524 66.6579 60.4564C67.0429 60.1604 67.2354 59.7558 67.2354 59.2427C67.2354 58.7197 67.0429 58.3151 66.6579 58.0289C66.2828 57.7329 65.7696 57.5849 65.1181 57.5849H60.3208L61.1944 56.4895V66.9988H59.24V55.8975H65.2958C66.0756 55.8975 66.7567 56.0405 67.339 56.3267C67.9313 56.603 68.3903 56.9928 68.716 57.4961C69.0516 57.9894 69.2194 58.5716 69.2194 59.2427C69.2194 59.8939 69.0516 60.4712 68.716 60.9745C68.3903 61.4679 67.9313 61.8576 67.339 62.1438C66.7567 62.4201 66.0756 62.5583 65.2958 62.5583H60.6022V60.9005ZM62.7935 61.8034H65.0885L69.5008 66.9988H67.1614L62.7935 61.8034Z" fill="#AFAFAF"/>
</svg>
