<svg width="128" height="128" viewBox="0 0 128 128" fill="none" xmlns="http://www.w3.org/2000/svg">
<path d="M53.0229 48.6545C53.1549 47.9269 53.7819 47.3984 54.5134 47.3984H73.5058C74.2373 47.3984 74.8643 47.9269 74.9963 48.6545L79.1379 71.4902C79.3086 72.4317 78.5938 73.2993 77.6474 73.2993H50.3717C49.4253 73.2993 48.7105 72.4317 48.8813 71.4902L53.0229 48.6545Z" fill="#0D0D0D"/>
<path d="M53.186 47.7686C49.1833 46.8845 45.2298 49.4496 44.3557 53.4979L41.3873 67.2455C41.2802 67.7416 41.591 68.2317 42.0816 68.3401L42.5188 68.4366L42.1811 70.0005C41.9805 70.0469 41.7819 70.105 41.5864 70.1749C40.532 70.5519 39.62 71.2519 38.9773 72.1775C38.3345 73.1031 37.9929 74.2083 38.0001 75.3394C38.0041 75.9652 38.1147 76.5817 38.3236 77.163C38.6042 77.9438 39.5572 78.0942 40.2233 77.608C40.8895 77.1219 40.98 76.1509 40.9748 75.3201C40.9716 74.8145 41.1243 74.3205 41.4116 73.9067C41.6989 73.4929 42.1066 73.18 42.5779 73.0115C43.0493 72.843 43.5608 72.8272 44.0414 72.9664C44.522 73.1056 44.9478 73.3928 45.2595 73.7881C45.5712 74.1834 45.7533 74.6671 45.7806 75.172C45.8078 75.6769 45.6788 76.1778 45.4115 76.605C44.9722 77.3071 44.541 78.1794 44.8517 78.9485C45.1624 79.7175 46.0497 80.1002 46.6964 79.5879C47.1779 79.2065 47.5944 78.7426 47.9252 78.2138C48.5232 77.258 48.8118 76.1375 48.7509 75.0081C48.69 73.8787 48.2825 72.7965 47.5852 71.9122C47.4525 71.744 47.3106 71.5845 47.1604 71.4343L47.5669 69.5516L47.9553 69.6374C48.4459 69.7457 48.9304 69.4313 49.0375 68.9352L53.5007 48.2647C53.5493 48.0398 53.4084 47.8177 53.186 47.7686Z" fill="#0D0D0D"/>
<path d="M74.814 47.7686C78.8168 46.8845 82.7702 49.4496 83.6443 53.4979L86.6127 67.2455C86.7198 67.7416 86.409 68.2317 85.9184 68.3401L85.4812 68.4366L85.8189 70.0005C86.0196 70.0469 86.2181 70.105 86.4136 70.1749C87.468 70.5519 88.38 71.2519 89.0228 72.1775C89.6655 73.1031 90.0071 74.2083 89.9999 75.3394C89.996 75.9652 89.8854 76.5817 89.6765 77.163C89.3959 77.9438 88.4428 78.0942 87.7767 77.608C87.1106 77.1219 87.02 76.1509 87.0253 75.3201C87.0285 74.8145 86.8758 74.3205 86.5884 73.9067C86.3011 73.4929 85.8934 73.18 85.4221 73.0115C84.9508 72.843 84.4392 72.8272 83.9586 72.9664C83.478 73.1056 83.0523 73.3928 82.7406 73.7881C82.4289 74.1834 82.2467 74.6671 82.2195 75.172C82.1922 75.6769 82.3212 76.1778 82.5886 76.605C83.0278 77.3071 83.4591 78.1794 83.1483 78.9485C82.8376 79.7175 81.9503 80.1002 81.3036 79.5879C80.8222 79.2065 80.4057 78.7426 80.0748 78.2138C79.4768 77.258 79.1882 76.1375 79.2491 75.0081C79.3101 73.8787 79.7175 72.7965 80.4148 71.9122C80.5475 71.744 80.6894 71.5845 80.8397 71.4343L80.4331 69.5516L80.0447 69.6374C79.5542 69.7457 79.0696 69.4313 78.9625 68.9352L74.4993 48.2647C74.4508 48.0398 74.5917 47.8177 74.814 47.7686Z" fill="#0D0D0D"/>
<path d="M77.7991 73.2993H50.22V78.3569L48.8562 106.25H62.7973V90.0046H65.2218V106.25H79.1629L77.7991 78.3569V73.2993Z" fill="#0D0D0D"/>
<path fill-rule="evenodd" clip-rule="evenodd" d="M62.9027 22.7757C62.9027 22.2092 63.3619 21.75 63.9284 21.75C64.4949 21.75 64.9542 22.2092 64.9542 22.7757V23.6649H66.0703C66.513 23.6649 66.8719 24.0238 66.8719 24.4665C66.8719 24.9092 66.513 25.2681 66.0703 25.2681H64.9542V27.097H67.3382C68.0191 27.097 68.5711 27.6553 68.5711 28.3439V28.7365C70.4402 28.9241 71.8999 30.5191 71.8999 32.4588V41.0627C71.8999 42.5966 70.987 43.9149 69.6807 44.4922V45.3022C69.6807 45.6466 69.4047 45.9257 69.0642 45.9257H58.8313C58.4908 45.9257 58.2148 45.6466 58.2148 45.3022V44.4922C56.9085 43.9149 55.9956 42.5966 55.9956 41.0627V32.4588C55.9956 30.5191 57.4554 28.9241 59.3244 28.7365V28.3439C59.3244 27.6553 59.8764 27.097 60.5573 27.097H62.9027V25.2681H61.7866C61.3439 25.2681 60.985 24.9092 60.985 24.4665C60.985 24.0238 61.3439 23.6649 61.7866 23.6649H62.9027V22.7757ZM69.0323 38.458C66.8218 39.9641 64.3708 39.9562 62.1739 38.458C61.9091 38.2783 61.6713 38.5901 61.8496 38.8781C62.5198 39.9562 63.8709 40.9153 65.6004 40.9153C67.3298 40.9153 68.6837 39.9562 69.3511 38.8781C69.5295 38.5901 69.2917 38.2783 69.0269 38.458H69.0323ZM61.5018 35.0776C61.5018 35.7663 60.9567 36.3246 60.2843 36.3246C59.6119 36.3246 59.0669 35.7663 59.0669 35.0776C59.0669 34.389 59.6119 33.8307 60.2843 33.8307C60.9567 33.8307 61.5018 34.389 61.5018 35.0776ZM68.8067 35.0776C68.8067 35.7663 68.2616 36.3246 67.5892 36.3246C66.9168 36.3246 66.3717 35.7663 66.3717 35.0776C66.3717 34.389 66.9168 33.8307 67.5892 33.8307C68.2616 33.8307 68.8067 34.389 68.8067 35.0776Z" fill="#0D0D0D"/>
<path d="M59.24 66.9459V55.8574H61.1944V65.3048L60.6022 64.9352L68.0349 55.8574H70.1522L60.9871 66.9459H59.24ZM64.5258 61.3721L65.9028 60.0267L70.3151 66.9459H68.0793L64.5258 61.3721Z" fill="#AFAFAF"/>
</svg>
