<svg width="128" height="128" viewBox="0 0 128 128" fill="none" xmlns="http://www.w3.org/2000/svg">
<path d="M53.0419 48.6325C53.1739 47.9041 53.8009 47.375 54.5324 47.375H73.5249C74.2563 47.375 74.8833 47.9041 75.0153 48.6325L79.1569 71.4947C79.3277 72.4373 78.6129 73.3059 77.6665 73.3059H50.3908C49.4444 73.3059 48.7296 72.4373 48.9003 71.4947L53.0419 48.6325Z" fill="#F4F4F4"/>
<path d="M53.186 47.7009C49.1833 46.8158 45.2298 49.3839 44.3557 53.4369L41.3873 67.2004C41.2802 67.6971 41.591 68.1878 42.0816 68.2963L42.5188 68.3929L42.1811 69.9586C41.9805 70.0051 41.7819 70.0633 41.5864 70.1333C40.532 70.5107 39.62 71.2115 38.9773 72.1382C38.3345 73.0648 37.9929 74.1713 38.0001 75.3037C38.0041 75.9302 38.1147 76.5475 38.3236 77.1294C38.6042 77.9112 39.5572 78.0617 40.2233 77.575C40.8895 77.0882 40.98 76.1162 40.9748 75.2844C40.9716 74.7782 41.1243 74.2836 41.4116 73.8694C41.6989 73.4551 42.1066 73.1418 42.5779 72.9731C43.0493 72.8044 43.5608 72.7886 44.0414 72.928C44.522 73.0673 44.9478 73.3549 45.2595 73.7506C45.5712 74.1464 45.7533 74.6307 45.7806 75.1361C45.8078 75.6416 45.6788 76.1431 45.4115 76.5708C44.9722 77.2737 44.541 78.147 44.8517 78.917C45.1624 79.6869 46.0497 80.07 46.6964 79.5571C47.1779 79.1753 47.5944 78.7109 47.9252 78.1814C48.5232 77.2245 48.8118 76.1027 48.7509 74.972C48.69 73.8413 48.2825 72.7579 47.5852 71.8726C47.4525 71.7041 47.3106 71.5444 47.1604 71.3941L47.5669 69.5092L47.9553 69.5951C48.4459 69.7035 48.9304 69.3888 49.0375 68.8921L53.5007 48.1976C53.5493 47.9725 53.4084 47.7501 53.186 47.7009Z" fill="#F4F4F4"/>
<path d="M74.814 47.7009C78.8168 46.8158 82.7702 49.3839 83.6443 53.4369L86.6127 67.2004C86.7198 67.6971 86.409 68.1878 85.9184 68.2963L85.4812 68.3929L85.8189 69.9586C86.0196 70.0051 86.2181 70.0633 86.4136 70.1333C87.468 70.5107 88.38 71.2115 89.0228 72.1382C89.6655 73.0648 90.0071 74.1713 89.9999 75.3037C89.996 75.9302 89.8854 76.5475 89.6765 77.1294C89.3959 77.9112 88.4428 78.0617 87.7767 77.575C87.1106 77.0882 87.02 76.1162 87.0253 75.2844C87.0285 74.7782 86.8758 74.2836 86.5884 73.8694C86.3011 73.4551 85.8934 73.1418 85.4221 72.9731C84.9508 72.8044 84.4392 72.7886 83.9586 72.928C83.478 73.0673 83.0523 73.3549 82.7406 73.7506C82.4289 74.1464 82.2467 74.6307 82.2195 75.1361C82.1922 75.6416 82.3212 76.1431 82.5886 76.5708C83.0278 77.2737 83.4591 78.147 83.1483 78.917C82.8376 79.6869 81.9503 80.07 81.3036 79.5571C80.8222 79.1753 80.4057 78.7109 80.0748 78.1814C79.4768 77.2245 79.1882 76.1027 79.2492 74.972C79.3101 73.8413 79.7175 72.7579 80.4148 71.8726C80.5475 71.7041 80.6894 71.5444 80.8397 71.3941L80.4331 69.5092L80.0447 69.5951C79.5542 69.7035 79.0696 69.3888 78.9625 68.8921L74.4993 48.1976C74.4508 47.9725 74.5917 47.7501 74.814 47.7009Z" fill="#F4F4F4"/>
<path d="M77.7991 73.2607H50.22V78.3242L48.8562 106.25H62.7973V89.9854H65.2218V106.25H79.1629L77.7991 78.3242V73.2607Z" fill="#F4F4F4"/>
<path fill-rule="evenodd" clip-rule="evenodd" d="M59.5764 21.75C58.6986 21.75 57.987 22.4706 57.987 23.3594V23.866C55.5774 24.1083 53.6956 26.1668 53.6956 28.6704V39.7751C53.6956 41.755 54.8725 43.4565 56.5565 44.2016V45.2471C56.5565 45.6915 56.9123 46.0517 57.3512 46.0517H70.5434C70.9823 46.0517 71.3381 45.6915 71.3381 45.2471V44.2016C73.0222 43.4565 74.199 41.755 74.199 39.7751V28.6704C74.199 26.1668 72.3172 24.1083 69.9076 23.866V23.3594C69.9076 22.4706 69.196 21.75 68.3182 21.75H59.5764ZM59.2245 33.6598C60.0913 33.6598 60.794 32.9392 60.794 32.0504C60.794 31.1615 60.0913 30.441 59.2245 30.441C58.3576 30.441 57.6549 31.1615 57.6549 32.0504C57.6549 32.9392 58.3576 33.6598 59.2245 33.6598ZM67.889 36.2959C65.341 38.034 62.5159 38.0248 59.9835 36.2959C59.6783 36.0886 59.4041 36.4484 59.6097 36.7807C60.3822 38.0248 61.9396 39.1317 63.9331 39.1317C65.9266 39.1317 67.4872 38.0248 68.2565 36.7807C68.4621 36.4484 68.188 36.0886 67.8828 36.2959H67.889ZM70.2113 32.0504C70.2113 32.9392 69.5086 33.6598 68.6418 33.6598C67.7749 33.6598 67.0722 32.9392 67.0722 32.0504C67.0722 31.1615 67.7749 30.441 68.6418 30.441C69.5086 30.441 70.2113 31.1615 70.2113 32.0504Z" fill="#F4F4F4"/>
<path d="M65.0311 54C65.97 54 66.7804 54.1683 67.4622 54.505C68.1552 54.8417 68.6861 55.313 69.055 55.919C69.435 56.5138 69.625 57.2039 69.625 57.9895C69.625 58.7751 69.435 59.4708 69.055 60.0768C68.6861 60.6716 68.1552 61.1373 67.4622 61.474C66.7804 61.8107 65.97 61.979 65.0311 61.979H59.381V60.06H64.9473C65.7073 60.06 66.2997 59.8748 66.7245 59.5045C67.1604 59.1342 67.3784 58.6292 67.3784 57.9895C67.3784 57.3498 67.1604 56.8448 66.7245 56.4745C66.2997 56.1042 65.7073 55.919 64.9473 55.919H59.5989L60.5881 54.808V66.625H58.375V54H65.0311Z" fill="#717171"/>
</svg>
