<svg width="128" height="128" viewBox="0 0 128 128" fill="none" xmlns="http://www.w3.org/2000/svg">
<path d="M53.0229 48.5958C53.1549 47.8671 53.7819 47.3379 54.5134 47.3379H73.5058C74.2373 47.3379 74.8643 47.8671 74.9963 48.5958L79.1379 71.465C79.3086 72.4078 78.5938 73.2767 77.6474 73.2767H50.3717C49.4253 73.2767 48.7105 72.4078 48.8813 71.465L53.0229 48.5958Z" fill="#F4F4F4"/>
<path d="M53.186 47.7083C49.1833 46.8229 45.2298 49.3918 44.3557 53.446L41.3873 67.2137C41.2802 67.7106 41.591 68.2014 42.0816 68.3099L42.5188 68.4066L42.1811 69.9728C41.9805 70.0192 41.7819 70.0775 41.5864 70.1475C40.532 70.525 39.62 71.226 38.9773 72.153C38.3345 73.0799 37.9929 74.1868 38.0001 75.3195C38.0041 75.9462 38.1147 76.5636 38.3236 77.1458C38.6042 77.9278 39.5572 78.0783 40.2233 77.5915C40.8895 77.1046 40.98 76.1322 40.9748 75.3002C40.9716 74.7938 41.1243 74.2991 41.4116 73.8847C41.6989 73.4703 42.1066 73.157 42.5779 72.9882C43.0493 72.8194 43.5608 72.8036 44.0414 72.943C44.522 73.0824 44.9478 73.3701 45.2595 73.766C45.5712 74.1618 45.7533 74.6463 45.7806 75.1519C45.8078 75.6575 45.6788 76.1591 45.4115 76.587C44.9722 77.2901 44.541 78.1636 44.8517 78.9338C45.1624 79.704 46.0497 80.0872 46.6964 79.5742C47.1779 79.1923 47.5944 78.7277 47.9252 78.1981C48.5232 77.2409 48.8118 76.1187 48.7509 74.9877C48.69 73.8566 48.2825 72.7729 47.5852 71.8873C47.4525 71.7188 47.3106 71.5591 47.1604 71.4087L47.5669 69.5232L47.9553 69.6091C48.4459 69.7176 48.9304 69.4028 49.0375 68.9059L53.5007 48.2052C53.5493 47.9799 53.4084 47.7575 53.186 47.7083Z" fill="#F4F4F4"/>
<path d="M74.814 47.7083C78.8167 46.8229 82.7702 49.3918 83.6443 53.446L86.6127 67.2137C86.7198 67.7106 86.409 68.2014 85.9184 68.3099L85.4812 68.4066L85.8189 69.9728C86.0195 70.0192 86.2181 70.0775 86.4136 70.1475C87.468 70.525 88.38 71.226 89.0227 72.153C89.6655 73.0799 90.0071 74.1868 89.9999 75.3195C89.9959 75.9462 89.8853 76.5636 89.6764 77.1458C89.3959 77.9278 88.4428 78.0783 87.7767 77.5915C87.1106 77.1046 87.02 76.1322 87.0252 75.3002C87.0284 74.7938 86.8757 74.2991 86.5884 73.8847C86.3011 73.4703 85.8934 73.157 85.4221 72.9882C84.9507 72.8194 84.4392 72.8036 83.9586 72.943C83.478 73.0824 83.0522 73.3701 82.7405 73.766C82.4288 74.1618 82.2467 74.6463 82.2194 75.1519C82.1922 75.6575 82.3212 76.1591 82.5885 76.587C83.0278 77.2901 83.459 78.1636 83.1483 78.9338C82.8376 79.704 81.9503 80.0872 81.3036 79.5742C80.8222 79.1923 80.4057 78.7277 80.0748 78.1981C79.4768 77.2409 79.1882 76.1187 79.2491 74.9877C79.3101 73.8566 79.7175 72.7729 80.4148 71.8873C80.5475 71.7188 80.6894 71.5591 80.8396 71.4087L80.4331 69.5232L80.0447 69.6091C79.5541 69.7176 79.0696 69.4028 78.9625 68.9059L74.4993 48.2052C74.4507 47.9799 74.5916 47.7575 74.814 47.7083Z" fill="#F4F4F4"/>
<path d="M77.7991 73.2769H50.22V78.3418L48.8562 106.276H62.7973V90.0066H65.2218V106.276H79.1629L77.7991 78.3418V73.2769Z" fill="#F4F4F4"/>
<path fill-rule="evenodd" clip-rule="evenodd" d="M57.8928 45.8631L65.9068 45.8554L69.2985 45.8521C69.8918 45.8509 70.155 45.8682 70.3556 45.7644C70.5586 45.6595 70.6975 45.4308 71.0492 44.9342L72.0261 43.4875C74.9875 38.8697 76.2175 34.5255 76.1933 29.1498C76.1864 27.6006 76.0716 27.3983 74.5709 27.3972L66.4251 27.3842L66.4379 23.9143C66.4389 23.7234 66.443 23.5484 66.4467 23.3881C66.4774 22.0715 66.485 21.7478 64.5473 21.75L62.1576 21.7669C61.3793 22.0721 61.4 22.5501 61.428 23.1984C61.4335 23.3256 61.4393 23.4593 61.4394 23.5995L61.4422 26.0246C61.4423 26.1523 61.4444 26.2813 61.4466 26.4107C61.452 26.7348 61.4574 27.062 61.432 27.3805L53.5739 27.3872C51.8527 27.3425 51.8533 27.7253 51.8554 29.1668L51.8555 29.2073L51.8692 31.5337C51.9767 34.9507 53.523 38.9867 55.1095 41.9379C55.4463 42.5647 57.28 45.7802 57.8928 45.8631ZM60.9547 34.4437C60.9547 35.2934 60.2661 35.9822 59.4166 35.9822C58.5672 35.9822 57.8786 35.2934 57.8786 34.4437C57.8786 33.594 58.5672 32.9051 59.4166 32.9051C60.2661 32.9051 60.9547 33.594 60.9547 34.4437ZM70.1828 34.4437C70.1828 35.2934 69.4942 35.9822 68.6447 35.9822C67.7953 35.9822 67.1067 35.2934 67.1067 34.4437C67.1067 33.594 67.7953 32.9051 68.6447 32.9051C69.4942 32.9051 70.1828 33.594 70.1828 34.4437Z" fill="#F4F4F4"/>
<path d="M65.7318 61.5045L65.9242 61.0751C66.8027 61.085 67.5184 61.2182 68.0711 61.4749C68.6338 61.7315 69.0434 62.077 69.3001 62.5113C69.5666 62.9456 69.6998 63.4342 69.6998 63.9771C69.6998 64.5694 69.5567 65.0926 69.2705 65.5466C68.9941 66.0007 68.5844 66.361 68.0415 66.6275C67.4986 66.8841 66.8225 67.0124 66.0131 67.0124H58.6099L59.4835 61.312L58.6099 55.9077H65.7466C66.7731 55.9077 67.5628 56.1496 68.1156 56.6332C68.6782 57.107 68.9595 57.7634 68.9595 58.6025C68.9595 59.0466 68.8509 59.481 68.6338 59.9054C68.4265 60.32 68.086 60.6753 67.6121 60.9715C67.1482 61.2577 66.5214 61.4354 65.7318 61.5045ZM60.5792 66.4646L59.824 65.443H65.791C66.403 65.443 66.8768 65.3048 67.2124 65.0284C67.5579 64.7421 67.7306 64.3374 67.7306 63.8143C67.7306 63.2615 67.5282 62.8321 67.1235 62.5261C66.7287 62.2201 66.1414 62.0671 65.3616 62.0671H60.5495V60.5569H65.1691C65.6923 60.5569 66.1266 60.4138 66.4721 60.1275C66.8175 59.8314 66.9903 59.4119 66.9903 58.869C66.9903 58.4643 66.8472 58.1336 66.5609 57.877C66.2746 57.6104 65.8601 57.4772 65.3172 57.4772H59.824L60.5792 56.4555L61.3639 61.312L60.5792 66.4646Z" fill="#717171"/>
</svg>
